<svg xmlns="http://www.w3.org/2000/svg" xmlns:xlink="http://www.w3.org/1999/xlink" width="1640" zoomAndPan="magnify" viewBox="0 0 1230 693.000001" height="924" preserveAspectRatio="xMidYMid meet" version="1.0"><defs><clipPath id="89cd42eff3"><path d="M 0.886719 0 L 1229.113281 0 L 1229.113281 692 L 0.886719 692 Z M 0.886719 0 " clip-rule="nonzero"/></clipPath><clipPath id="98bcfd1043"><path d="M 320 542 L 376 542 L 376 674.738281 L 320 674.738281 Z M 320 542 " clip-rule="nonzero"/></clipPath><clipPath id="12d3f3bb6e"><path d="M 247 542 L 302 542 L 302 674.738281 L 247 674.738281 Z M 247 542 " clip-rule="nonzero"/></clipPath></defs><g clip-path="url(#89cd42eff3)"><path fill="#ffffff" d="M 0.886719 0 L 1229.113281 0 L 1229.113281 699.492188 L 0.886719 699.492188 Z M 0.886719 0 " fill-opacity="1" fill-rule="nonzero"/><path fill="#ffffff" d="M 0.886719 0 L 1229.113281 0 L 1229.113281 692 L 0.886719 692 Z M 0.886719 0 " fill-opacity="1" fill-rule="nonzero"/></g><path fill="#000000" d="M 586.972656 351.980469 L 586.972656 242.832031 C 590.226562 242.730469 593.761719 242.609375 597.507812 242.472656 C 599.375 242.40625 601.28125 242.335938 603.253906 242.261719 C 611.582031 222.453125 622.414062 208.515625 635.675781 200.507812 C 618.375 201.269531 602.4375 201.925781 589.976562 202.34375 C 581.242188 202.636719 574.226562 202.816406 569.621094 202.84375 C 568.714844 202.726562 567.792969 202.644531 566.851562 202.644531 L 454.09375 202.644531 C 453.140625 202.644531 452.210938 202.726562 451.289062 202.851562 C 446.492188 202.851562 439.316406 202.851562 430.492188 202.851562 C 413.078125 202.855469 389.261719 202.859375 364.667969 202.863281 C 357.410156 210.265625 348.632812 216.144531 338.847656 220.058594 C 348.824219 222.523438 359.726562 226.605469 370.808594 233.234375 C 376.863281 236.121094 380.046875 238.894531 381.5 240.425781 C 382.675781 241.308594 383.78125 242.304688 384.933594 243.230469 C 398.980469 243.230469 412.199219 243.230469 423.433594 243.226562 C 427.179688 243.226562 430.710938 243.226562 433.96875 243.226562 L 433.96875 313.242188 C 447.425781 346.578125 455.773438 388.089844 458.839844 437.648438 C 459.335938 445.605469 456.703125 453.28125 451.425781 459.253906 C 446.828125 464.449219 440.710938 467.816406 433.96875 468.929688 L 433.96875 638.085938 C 433.96875 657.292969 449.550781 672.871094 468.777344 672.871094 C 487.984375 672.871094 503.566406 657.292969 503.566406 638.085938 L 503.566406 458.683594 L 517.363281 458.683594 L 517.363281 638.089844 C 517.363281 657.296875 532.945312 672.875 552.167969 672.875 C 571.378906 672.875 586.964844 657.296875 586.964844 638.089844 L 586.964844 351.980469 Z M 586.972656 351.980469 " fill-opacity="1" fill-rule="nonzero"/><path fill="#000000" d="M 257.4375 202.878906 C 253.519531 202.878906 251.316406 202.878906 251.316406 202.878906 L 251.320312 233.207031 C 262.386719 226.59375 273.277344 222.519531 283.238281 220.058594 C 273.464844 216.144531 264.691406 210.277344 257.4375 202.878906 Z M 257.4375 202.878906 " fill-opacity="1" fill-rule="nonzero"/><path fill="#000000" d="M 441.71875 122.175781 C 441.71875 160.136719 472.5 190.90625 510.472656 190.90625 C 548.445312 190.90625 579.226562 160.136719 579.226562 122.175781 C 579.226562 84.21875 548.445312 53.445312 510.472656 53.445312 C 472.5 53.445312 441.71875 84.214844 441.71875 122.175781 Z M 550.882812 141.621094 C 542.507812 155.179688 527.550781 164.265625 510.472656 164.265625 C 493.394531 164.265625 478.4375 155.179688 470.0625 141.621094 Z M 550.882812 141.621094 " fill-opacity="1" fill-rule="nonzero"/><path fill="#000000" d="M 791.816406 122.082031 C 791.816406 120.515625 791.6875 118.980469 791.582031 117.441406 L 765.402344 111.617188 C 765.347656 111.902344 765.316406 112.191406 765.253906 112.484375 C 761.988281 127.152344 747.445312 136.394531 732.773438 133.128906 C 718.097656 129.863281 708.851562 115.332031 712.117188 100.660156 C 712.179688 100.371094 712.277344 100.097656 712.351562 99.8125 L 701.125 97.3125 C 701.070312 97.601562 701.039062 97.886719 700.976562 98.179688 C 697.710938 112.847656 683.171875 122.09375 668.492188 118.828125 C 663.257812 117.660156 658.726562 115.042969 655.199219 111.511719 C 654.664062 114.964844 654.300781 118.476562 654.300781 122.078125 C 654.300781 160.035156 685.085938 190.808594 723.058594 190.808594 C 761.035156 190.8125 791.816406 160.039062 791.816406 122.082031 Z M 698.863281 156.375 C 685.648438 153.457031 675.628906 143.871094 671.464844 131.949219 L 734 145.753906 C 725.203125 154.816406 712.074219 159.292969 698.863281 156.375 Z M 698.863281 156.375 " fill-opacity="1" fill-rule="nonzero"/><path fill="#000000" d="M 718.546875 102.089844 C 716.070312 113.214844 723.085938 124.230469 734.203125 126.707031 C 745.324219 129.179688 756.351562 122.171875 758.828125 111.054688 C 761.304688 99.933594 754.289062 88.914062 743.171875 86.441406 C 732.046875 83.964844 721.023438 90.972656 718.546875 102.089844 Z M 718.546875 102.089844 " fill-opacity="1" fill-rule="nonzero"/><path fill="#000000" d="M 654.269531 87.792969 C 651.792969 98.914062 658.808594 109.929688 669.925781 112.40625 C 681.050781 114.878906 692.074219 107.875 694.550781 96.753906 C 697.027344 85.636719 690.011719 74.617188 678.894531 72.140625 C 667.769531 69.660156 656.746094 76.671875 654.269531 87.792969 Z M 654.269531 87.792969 " fill-opacity="1" fill-rule="nonzero"/><path fill="#000000" d="M 689.875 61.894531 C 687.425781 63.246094 685.105469 64.78125 682.851562 66.410156 C 693.019531 69.714844 700.082031 78.605469 701.386719 88.835938 L 715.722656 92.023438 C 721.695312 82.609375 733.097656 77.457031 744.605469 80.015625 C 756.117188 82.574219 764.257812 92.078125 765.667969 103.132812 L 790.492188 108.65625 C 786.675781 89.390625 774.777344 73.082031 758.5 63.261719 C 756.261719 58.542969 754.457031 53.53125 754.152344 49.171875 C 753.75 43.359375 756.019531 38.722656 763.496094 37.574219 C 790.632812 33.394531 744.71875 26.648438 728.117188 42.996094 C 727.503906 43.605469 726.929688 44.242188 726.402344 44.914062 C 725.71875 44.234375 725.058594 43.546875 724.453125 42.851562 C 718.265625 35.804688 716.089844 28.027344 724.945312 21.175781 C 752.539062 -0.164062 695.296875 21.625 689.328125 50.375 C 688.539062 54.121094 688.601562 57.988281 689.875 61.894531 Z M 689.875 61.894531 " fill-opacity="1" fill-rule="nonzero"/><path fill="#000000" d="M 637.351562 316.09375 C 638.324219 308.671875 639.453125 301.632812 640.703125 295.175781 C 640.703125 295.171875 640.707031 295.167969 640.707031 295.164062 C 642.636719 285.1875 644.777344 277.015625 646.984375 270.320312 L 646.984375 638.089844 C 646.984375 657.296875 662.5625 672.875 681.789062 672.875 C 701 672.875 716.582031 657.296875 716.582031 638.089844 L 716.582031 458.683594 L 730.375 458.683594 L 730.375 638.089844 C 730.375 657.296875 745.960938 672.875 765.179688 672.875 C 784.394531 672.875 799.980469 657.296875 799.980469 638.089844 L 799.980469 468.589844 C 799.910156 468.585938 799.839844 468.585938 799.769531 468.582031 C 791.832031 468.09375 784.539062 464.53125 779.257812 458.558594 C 773.980469 452.582031 771.34375 444.910156 771.839844 436.953125 C 775.152344 383.503906 784.59375 339.394531 799.976562 304.832031 L 799.976562 270.273438 C 801.972656 276.3125 803.953125 283.703125 805.785156 292.753906 C 814.300781 276.421875 824.375 262.617188 835.9375 251.269531 C 830.535156 236.890625 823.980469 225.839844 816.257812 218.03125 C 806.902344 208.574219 795.535156 203.417969 783.300781 202.945312 C 782.179688 202.761719 781.03125 202.648438 779.855469 202.648438 L 667.101562 202.648438 C 665.882812 202.648438 664.695312 202.765625 663.53125 202.964844 C 639.964844 203.851562 622.140625 220.730469 610.289062 253.21875 C 606.648438 263.1875 603.554688 274.578125 601.050781 287.488281 C 601.050781 287.488281 601.050781 287.492188 601.050781 287.492188 C 599.757812 294.1875 598.589844 301.402344 597.570312 308.945312 C 597.554688 308.953125 597.53125 308.964844 597.507812 308.976562 L 597.507812 309.398438 C 597.441406 309.886719 597.371094 310.359375 597.308594 310.851562 C 597.019531 313.050781 597.113281 315.214844 597.507812 317.28125 L 597.507812 351.039062 C 607.117188 348.980469 615.984375 345.675781 622.796875 340.515625 C 629.753906 335.246094 634.390625 328.402344 636.449219 320.554688 L 636.449219 319.9375 C 636.859375 318.707031 637.175781 317.429688 637.351562 316.09375 Z M 637.351562 316.09375 " fill-opacity="1" fill-rule="nonzero"/><path fill="#000000" d="M 281.160156 81.417969 C 274.726562 75.710938 266.28125 72.214844 257.003906 72.214844 C 236.878906 72.214844 220.566406 88.523438 220.566406 108.636719 C 220.566406 121.226562 226.953125 132.324219 236.667969 138.867188 L 236.863281 138.824219 C 240.851562 113.03125 257.9375 91.527344 281.160156 81.417969 Z M 281.160156 81.417969 " fill-opacity="1" fill-rule="nonzero"/><g clip-path="url(#98bcfd1043)"><path fill="#000000" d="M 320.492188 647.324219 C 320.492188 662.382812 332.703125 674.597656 347.769531 674.597656 C 362.835938 674.597656 375.046875 662.382812 375.046875 647.324219 L 375.046875 542.285156 C 359.996094 544.449219 341.6875 546.1875 320.496094 546.597656 L 320.496094 647.324219 Z M 320.492188 647.324219 " fill-opacity="1" fill-rule="nonzero"/></g><g clip-path="url(#12d3f3bb6e)"><path fill="#000000" d="M 247.042969 647.324219 C 247.042969 662.382812 259.261719 674.597656 274.320312 674.597656 C 289.386719 674.597656 301.605469 662.382812 301.605469 647.324219 L 301.605469 546.59375 C 280.40625 546.1875 262.101562 544.449219 247.046875 542.28125 L 247.046875 647.324219 Z M 247.042969 647.324219 " fill-opacity="1" fill-rule="nonzero"/></g><path fill="#000000" d="M 448.332031 438.304688 C 441.378906 326.101562 407.964844 272.84375 374.042969 248.007812 C 374.015625 247.898438 373.996094 247.832031 373.996094 247.832031 C 373.996094 247.832031 371.960938 245.382812 365.839844 242.535156 C 344.933594 229.902344 324.628906 227.171875 311.042969 227.171875 C 297.457031 227.171875 277.144531 229.90625 256.234375 242.542969 C 250.128906 245.386719 248.097656 247.832031 248.097656 247.832031 C 248.097656 247.832031 248.078125 247.898438 248.054688 248.003906 C 214.125 272.839844 180.707031 326.097656 173.753906 438.304688 C 173.09375 448.953125 181.1875 458.113281 191.835938 458.769531 C 198.257812 459.191406 204.152344 456.367188 207.960938 451.714844 C 204.519531 477.578125 202.308594 501.867188 202.308594 521.640625 C 202.308594 521.640625 242.785156 536.164062 311.042969 536.164062 C 379.300781 536.164062 419.777344 521.640625 419.777344 521.640625 C 419.777344 501.847656 417.566406 477.535156 414.121094 451.644531 C 417.679688 456.011719 423.050781 458.808594 429.039062 458.808594 C 429.4375 458.808594 429.84375 458.800781 430.25 458.769531 C 440.894531 458.109375 448.992188 448.949219 448.332031 438.304688 Z M 448.332031 438.304688 " fill-opacity="1" fill-rule="nonzero"/><path fill="#000000" d="M 286.214844 109.410156 C 297.722656 106.851562 309.125 112.003906 315.097656 121.417969 L 329.433594 118.230469 C 330.800781 107.515625 338.503906 98.285156 349.460938 95.394531 C 338.574219 87.773438 325.347656 83.265625 311.046875 83.265625 C 278.582031 83.265625 251.511719 106.320312 245.308594 136.945312 L 265.152344 132.53125 C 266.5625 121.472656 274.699219 111.96875 286.214844 109.410156 Z M 286.214844 109.410156 " fill-opacity="1" fill-rule="nonzero"/><path fill="#000000" d="M 378.125 150.320312 C 378.125 146.542969 377.734375 142.863281 377.132812 139.253906 C 373.429688 143.625 368.34375 146.886719 362.316406 148.226562 C 347.644531 151.492188 333.097656 142.246094 329.832031 127.578125 C 329.765625 127.292969 329.738281 127.003906 329.6875 126.710938 L 318.457031 129.210938 C 318.53125 129.496094 318.625 129.769531 318.691406 130.058594 C 321.960938 144.726562 312.710938 159.265625 298.039062 162.53125 C 283.367188 165.792969 268.820312 156.550781 265.554688 141.882812 C 265.492188 141.59375 265.464844 141.304688 265.40625 141.015625 L 244.195312 145.734375 C 244.09375 147.257812 243.964844 148.769531 243.964844 150.320312 C 243.964844 187.355469 273.996094 217.375 311.042969 217.375 C 348.09375 217.375 378.125 187.355469 378.125 150.320312 Z M 354.519531 161.785156 C 350.359375 173.707031 340.339844 183.292969 327.121094 186.210938 C 313.90625 189.128906 300.78125 184.652344 291.984375 175.589844 Z M 354.519531 161.785156 " fill-opacity="1" fill-rule="nonzero"/><path fill="#000000" d="M 351.921875 101.535156 C 340.796875 104.011719 333.789062 115.03125 336.265625 126.152344 C 338.738281 137.273438 349.765625 144.277344 360.886719 141.800781 C 372.007812 139.328125 379.019531 128.308594 376.542969 117.1875 C 374.066406 106.070312 363.042969 99.0625 351.921875 101.535156 Z M 351.921875 101.535156 " fill-opacity="1" fill-rule="nonzero"/><path fill="#000000" d="M 287.644531 115.835938 C 276.519531 118.3125 269.511719 129.332031 271.984375 140.449219 C 274.460938 151.570312 285.488281 158.578125 296.609375 156.101562 C 307.730469 153.625 314.742188 142.609375 312.265625 131.488281 C 309.789062 120.371094 298.765625 113.359375 287.644531 115.835938 Z M 287.644531 115.835938 " fill-opacity="1" fill-rule="nonzero"/><path fill="#000000" d="M 855.640625 646.628906 C 855.640625 661.683594 867.851562 673.898438 882.917969 673.898438 C 897.984375 673.898438 910.199219 661.683594 910.199219 646.628906 L 910.199219 545.894531 C 889.003906 545.484375 870.695312 543.75 855.644531 541.582031 L 855.644531 646.628906 Z M 855.640625 646.628906 " fill-opacity="1" fill-rule="nonzero"/><path fill="#000000" d="M 929.082031 646.628906 C 929.082031 661.683594 941.300781 673.898438 956.367188 673.898438 C 971.425781 673.898438 983.644531 661.683594 983.644531 646.628906 L 983.644531 541.585938 C 968.59375 543.753906 950.28125 545.488281 929.082031 545.898438 Z M 929.082031 646.628906 " fill-opacity="1" fill-rule="nonzero"/><path fill="#000000" d="M 1017.285156 285.695312 C 1008.433594 285.15625 996.222656 281.527344 984.257812 268.511719 C 977.125 260.746094 973.792969 250.890625 972.148438 240.523438 C 952.058594 229.039062 932.726562 226.472656 919.640625 226.472656 C 906.058594 226.472656 885.753906 229.203125 864.847656 241.839844 C 858.726562 244.6875 856.6875 247.132812 856.6875 247.132812 C 856.6875 247.132812 856.671875 247.199219 856.640625 247.308594 C 822.714844 272.148438 789.300781 325.402344 782.351562 437.609375 C 781.691406 448.253906 789.785156 457.414062 800.433594 458.074219 C 800.839844 458.097656 801.242188 458.109375 801.648438 458.109375 C 807.632812 458.109375 813 455.3125 816.566406 450.945312 C 813.117188 476.835938 810.90625 501.148438 810.90625 520.945312 C 810.90625 520.945312 851.382812 535.464844 919.636719 535.464844 C 987.894531 535.464844 1028.371094 520.945312 1028.371094 520.945312 C 1028.371094 501.167969 1026.164062 476.878906 1022.71875 451.015625 C 1026.527344 455.664062 1032.425781 458.488281 1038.84375 458.074219 C 1049.492188 457.414062 1057.589844 448.253906 1056.925781 437.609375 C 1052.4375 365.085938 1036.882812 317.210938 1017.285156 285.695312 Z M 1017.285156 285.695312 " fill-opacity="1" fill-rule="nonzero"/><path fill="#000000" d="M 990.207031 263.046875 C 1016.054688 291.167969 1044.226562 270.136719 1032.863281 270.40625 C 1021.496094 270.675781 1007.488281 263.714844 1009.351562 221.796875 C 1010.554688 194.695312 1002.484375 179.640625 991.632812 171.097656 C 988.695312 180.917969 983.824219 189.90625 977.425781 197.59375 C 979.941406 217.421875 975.433594 246.976562 990.207031 263.046875 Z M 990.207031 263.046875 " fill-opacity="1" fill-rule="nonzero"/><path fill="#000000" d="M 986.722656 149.625 C 986.722656 112.589844 956.691406 82.566406 919.640625 82.566406 C 882.59375 82.566406 852.5625 112.589844 852.5625 149.625 C 852.5625 186.660156 882.59375 216.679688 919.640625 216.679688 C 956.691406 216.679688 986.722656 186.65625 986.722656 149.625 Z M 883.148438 170.261719 L 956.136719 170.261719 C 948.570312 182.507812 935.0625 190.710938 919.640625 190.710938 C 904.214844 190.710938 890.707031 182.507812 883.148438 170.261719 Z M 883.148438 170.261719 " fill-opacity="1" fill-rule="nonzero"/></svg>