<?xml version="1.0" standalone="no"?>
<!DOCTYPE svg PUBLIC "-//W3C//DTD SVG 20010904//EN"
 "http://www.w3.org/TR/2001/REC-SVG-20010904/DTD/svg10.dtd">
<svg version="1.0" xmlns="http://www.w3.org/2000/svg"
 width="1024.000000pt" height="1024.000000pt" viewBox="0 0 1024.000000 1024.000000"
 preserveAspectRatio="xMidYMid meet">
<metadata>
Created by potrace 1.16, written by Peter Selinger 2001-2019
</metadata>
<g transform="translate(0.000000,1024.000000) scale(0.100000,-0.100000)"
fill="#000000" stroke="none">
<path d="M2490 9818 c-62 -62 -91 -111 -248 -423 -78 -154 -214 -410 -303
-570 -273 -492 -381 -718 -479 -1010 -58 -171 -89 -291 -99 -386 -9 -81 -10
-78 80 -140 53 -36 59 -43 59 -74 0 -19 -2 -35 -5 -35 -3 0 -46 16 -95 35
-102 40 -119 42 -121 18 -9 -108 50 -212 246 -438 61 -69 112 -131 114 -138 2
-6 -16 4 -40 22 -102 76 -269 167 -283 153 -3 -3 -5 -26 -5 -51 2 -32 3 -37 6
-16 7 53 10 56 38 43 19 -9 25 -17 21 -32 -3 -11 0 -26 6 -33 7 -9 7 -13 -1
-13 -6 0 -11 -5 -11 -11 0 -5 4 -8 8 -5 4 2 9 -5 9 -17 2 -16 0 -18 -6 -8 -6
8 -8 -1 -7 -27 0 -22 4 -38 9 -35 4 2 8 -10 9 -26 2 -51 3 -56 9 -61 3 -3 16
-34 29 -69 18 -51 20 -67 11 -85 -10 -18 -8 -31 8 -69 23 -54 16 -58 -42 -27
-35 19 -46 17 -29 -5 4 -5 12 -10 17 -10 6 0 27 -6 47 -13 32 -11 40 -21 59
-70 47 -126 79 -227 74 -240 -3 -8 0 -10 7 -6 8 5 9 2 5 -9 -3 -10 -2 -17 4
-17 6 0 8 -4 4 -9 -5 -9 15 -60 51 -134 8 -16 11 -34 7 -39 -3 -7 -1 -8 5 -4
7 4 12 0 12 -10 0 -9 16 -37 37 -62 36 -44 37 -44 85 -39 61 8 62 1 2 -14 -30
-8 -41 -15 -33 -20 7 -4 17 -5 22 -2 10 6 57 -43 57 -59 0 -5 4 -6 10 -3 5 3
15 -5 22 -19 6 -14 17 -26 25 -26 7 0 13 -6 13 -13 0 -8 9 -22 20 -32 11 -10
17 -21 15 -26 -3 -4 4 -10 15 -14 11 -3 19 -11 17 -17 -1 -6 4 -12 11 -14 7
-1 8 0 3 2 -5 3 -6 15 -3 27 5 19 8 16 18 -18 8 -25 13 -32 13 -18 1 12 -4 34
-10 50 -15 41 4 17 41 -52 40 -74 49 -87 63 -78 6 4 8 0 4 -11 -5 -12 1 -19
19 -26 14 -6 28 -19 31 -30 3 -11 10 -17 17 -13 6 4 5 -1 -3 -10 -12 -15 -12
-17 1 -12 9 4 18 -1 22 -10 3 -9 11 -13 16 -10 6 4 9 1 8 -7 -2 -7 3 -12 10
-11 6 2 12 -4 12 -14 0 -9 3 -13 6 -10 4 3 16 -5 26 -19 11 -14 18 -27 16 -29
-2 -2 -39 20 -82 51 -43 30 -75 50 -71 45 3 -6 34 -30 68 -54 69 -49 133 -88
104 -64 -17 14 -17 15 7 13 13 0 22 -4 20 -7 -6 -10 104 -56 208 -86 55 -16
98 -33 98 -40 0 -9 -7 -10 -25 -3 -19 7 -23 6 -18 -6 4 -10 0 -12 -11 -8 -9 3
-13 10 -10 15 3 5 -2 6 -11 2 -13 -5 -14 -7 -3 -14 15 -10 273 -94 333 -108
36 -9 34 -9 -30 -8 -51 2 -69 -1 -68 -10 2 -9 -10 -13 -37 -13 -22 0 -40 -5
-40 -11 0 -5 8 -9 18 -8 30 3 56 -1 49 -7 -4 -4 -16 -7 -28 -8 -12 0 -33 -15
-46 -33 l-25 -32 48 4 c26 2 66 6 88 9 l41 5 -40 -14 c-22 -7 -48 -14 -57 -14
-10 -1 -18 -6 -18 -12 0 -5 6 -7 13 -3 6 4 9 4 5 -1 -4 -4 -3 -14 3 -22 13
-15 -1 -18 -19 -3 -6 6 -10 7 -7 4 3 -4 0 -13 -6 -20 -8 -10 -5 -12 15 -8 16
2 26 0 26 -7 0 -6 10 -9 23 -7 13 3 29 -2 37 -11 12 -13 12 -14 -2 -9 -9 4
-19 1 -21 -6 -5 -12 13 -14 48 -6 6 2 26 -1 45 -5 l35 -9 -28 -7 c-32 -8 -252
-28 -362 -32 -40 -2 -21 -4 46 -5 160 -3 368 20 487 54 10 3 9 0 -3 -6 -12 -6
-27 -20 -34 -32 -13 -21 -13 -21 49 0 9 3 6 -2 -5 -11 -55 -44 68 14 156 74
61 41 105 88 120 128 l10 24 16 -24 c32 -45 135 -164 221 -252 69 -71 83 -91
71 -99 -12 -8 -11 -9 2 -5 10 3 69 -35 155 -100 76 -57 144 -109 149 -115 14
-16 -45 20 -70 42 -36 32 -187 120 -224 130 -48 13 -91 13 -91 -1 0 -21 96
-99 170 -139 43 -22 66 -40 55 -40 -30 0 -170 83 -201 119 -23 27 -54 45 -40
23 5 -9 -44 -8 -84 2 -14 4 -18 3 -10 -1 8 -5 16 -16 18 -27 2 -10 -1 -15 -7
-12 -5 4 -13 1 -17 -5 -4 -8 -9 -7 -15 2 -7 11 -9 11 -9 -2 0 -13 28 -26 108
-52 59 -19 130 -39 158 -43 l49 -7 -54 -13 c-74 -16 -84 -32 -78 -121 5 -68 4
-72 -16 -75 -14 -2 -34 9 -55 30 -18 18 -37 30 -42 27 -6 -3 -7 1 -4 9 3 9 10
13 15 10 5 -3 7 1 4 8 -3 7 7 27 21 43 l26 30 -21 -32 c-20 -29 -20 -63 0 -63
23 0 46 95 24 104 -9 3 -30 -20 -62 -67 -26 -39 -53 -73 -59 -74 -7 -2 -28 25
-47 59 -20 35 -46 72 -59 83 -23 20 -23 20 -7 0 9 -11 17 -33 17 -50 2 -35 8
-70 17 -88 10 -17 -76 73 -98 103 -14 20 -15 20 -7 3 5 -12 10 -35 10 -51 0
-16 13 -45 30 -68 16 -21 30 -47 30 -56 0 -22 6 -22 -59 3 -30 11 -83 23 -120
26 l-65 6 32 -40 c18 -23 32 -48 32 -58 0 -9 4 -14 9 -11 11 7 8 -21 -4 -31
-4 -4 -5 -2 0 6 6 11 3 13 -15 8 -13 -3 -31 -1 -39 5 -9 6 2 -5 23 -24 24 -21
36 -39 32 -46 -4 -7 -3 -12 3 -12 12 0 41 -28 41 -41 0 -5 -8 -9 -19 -9 -26 0
-110 -77 -118 -108 -6 -24 -7 -25 -14 -7 -7 18 -8 18 -8 2 -1 -10 -5 -15 -11
-12 -7 4 -7 -3 0 -20 14 -38 12 -88 -5 -121 -14 -27 -13 -29 15 -47 17 -11 30
-24 30 -29 0 -9 -21 3 -40 22 -8 8 -80 48 -165 92 -88 45 -182 82 -233 91
l-33 7 18 -31 c45 -77 206 -205 444 -354 18 -11 39 -31 47 -45 14 -22 12 -22
-19 6 -19 17 -65 45 -104 63 -38 18 -140 79 -225 135 -156 104 -244 158 -225
139 6 -5 69 -49 140 -98 72 -48 153 -109 180 -135 28 -27 74 -62 103 -80 52
-31 64 -57 26 -53 -10 1 -39 -3 -64 -8 -70 -15 -275 -81 -278 -90 -2 -4 -11
-6 -20 -3 -15 5 -15 4 -1 -5 11 -7 27 -7 50 -1 19 6 42 10 52 10 15 0 16 -2 5
-14 -7 -8 -17 -11 -22 -8 -5 3 -7 -2 -3 -11 3 -9 0 -18 -9 -21 -8 -3 -14 -14
-14 -25 0 -11 -5 -23 -10 -26 -6 -4 -8 -11 -5 -16 4 -5 0 -9 -7 -9 -8 -1 -4
-8 8 -19 20 -16 20 -18 5 -28 -13 -9 -12 -10 9 -9 14 1 30 5 37 9 7 4 16 0 22
-10 5 -10 12 -17 15 -15 18 7 25 0 12 -14 -14 -13 -14 -17 -2 -30 8 -8 25 -14
38 -15 13 0 -12 -13 -55 -28 -90 -33 -122 -54 -61 -41 45 10 165 21 146 13 -6
-2 -10 -9 -6 -14 3 -5 0 -8 -7 -7 -9 2 -16 -23 -24 -79 -10 -73 -15 -87 -45
-119 -30 -32 -26 -30 28 13 70 56 210 139 218 130 3 -3 -9 -20 -28 -37 l-33
-31 62 30 c85 42 205 81 245 80 30 0 28 -2 -22 -18 -81 -27 -125 -49 -220
-112 -117 -78 -172 -129 -226 -210 -26 -38 -51 -69 -56 -69 -5 0 -6 -5 -3 -10
3 -6 0 -17 -7 -25 -37 -41 -60 -83 -53 -95 4 -6 1 -10 -4 -10 -6 0 -11 -8 -11
-17 0 -10 -11 -31 -25 -47 -14 -16 -23 -37 -21 -45 3 -9 13 -43 22 -76 10 -33
17 -62 17 -65 -1 -3 14 -16 33 -30 37 -27 43 -40 18 -40 -9 0 -29 -10 -44 -22
-15 -13 -36 -28 -46 -34 -18 -11 -18 -13 5 -85 25 -78 85 -229 146 -367 40
-90 42 -136 9 -187 -17 -26 -33 -180 -16 -156 12 17 46 6 36 -11 -5 -8 -1 -8
10 1 15 13 19 13 27 0 5 -8 7 -20 4 -26 -2 -7 2 -13 10 -13 20 0 19 -13 -5
-43 -26 -33 -25 -37 6 -37 24 0 25 3 19 32 l-6 33 33 -39 c18 -22 52 -52 75
-66 l43 -27 -123 -6 c-177 -8 -427 -30 -427 -38 0 -4 7 -9 15 -13 8 -3 15 -1
15 4 0 6 5 10 11 10 5 0 7 -5 3 -12 -5 -7 -3 -8 7 -2 8 4 32 9 54 10 22 0 65
4 95 7 59 8 238 23 390 35 244 18 850 2 850 -22 0 -14 -70 -11 -255 10 -122
14 -168 14 -355 4 -118 -7 -278 -16 -355 -20 -77 -3 -114 -7 -82 -8 31 -1 60
-2 63 -1 4 0 11 -5 15 -13 6 -8 9 -9 9 -1 0 12 24 12 36 0 12 -12 26 -8 18 5
-6 10 -5 10 7 1 8 -6 35 -10 62 -10 26 1 47 -1 47 -5 0 -5 12 -8 26 -8 18 0
39 -13 62 -37 45 -48 88 -56 98 -18 7 30 25 29 39 -3 9 -20 16 -21 165 -21
138 0 433 23 370 29 -14 1 -31 2 -39 1 -7 -2 -10 2 -7 7 3 6 0 13 -6 15 -7 3
1 4 17 4 27 -2 30 0 27 27 -3 19 0 26 7 21 6 -3 8 -11 5 -17 -4 -7 0 -7 12 0
11 5 56 12 102 16 83 7 83 7 71 -15 -9 -18 -4 -17 34 11 42 29 51 32 116 31
39 0 71 3 71 8 0 9 92 42 99 36 2 -3 -17 -14 -42 -25 -26 -12 -47 -23 -47 -26
0 -3 4 -3 9 0 5 4 11 2 13 -2 2 -8 112 -1 143 9 6 1 22 -4 38 -11 33 -16 46
-7 25 17 -17 20 -32 56 -20 50 4 -1 23 -11 43 -22 36 -18 37 -18 71 3 19 12
47 33 62 47 l27 25 8 -23 c5 -12 18 -31 30 -41 18 -16 25 -17 47 -7 14 6 76
14 138 16 110 6 112 5 136 -20 13 -14 28 -25 34 -25 6 0 -2 11 -19 25 -28 23
-29 24 -6 20 13 -2 29 -12 37 -22 7 -10 14 -16 15 -13 5 16 5 50 0 50 -3 1
-19 12 -36 26 l-30 26 32 -16 c86 -43 219 -41 320 4 39 17 48 18 76 6 67 -28
177 -54 177 -42 0 3 -15 20 -32 36 -26 23 -29 29 -15 30 10 0 35 -11 55 -25
47 -32 52 -31 52 6 0 31 0 31 25 15 13 -9 31 -16 40 -16 14 0 20 -12 16 -34
-2 -8 50 -2 92 11 17 4 16 8 -9 34 -23 24 -25 31 -15 42 11 10 15 8 25 -7 22
-39 58 -67 71 -56 8 7 21 7 37 1 14 -5 31 -6 39 0 8 4 31 6 52 2 29 -4 44 0
72 18 19 13 35 30 35 37 0 24 -27 23 -86 -3 -54 -25 -148 -45 -132 -30 4 4 20
8 35 9 15 2 51 13 78 25 28 13 64 24 80 24 28 2 30 0 30 -36 0 -20 3 -37 6
-37 4 0 21 13 38 29 32 30 37 28 22 -11 -8 -22 -7 -24 27 -24 20 0 37 -5 39
-11 3 -8 13 -7 32 3 21 10 36 12 55 5 16 -7 27 -7 31 -1 4 6 68 10 155 9 142
0 222 10 235 32 4 5 15 7 26 4 11 -4 19 -3 18 2 -5 27 4 33 49 33 80 0 152
-28 110 -43 -7 -2 -2 -2 12 0 14 3 35 13 46 25 19 17 38 20 126 22 88 2 110 5
144 25 l39 23 -30 -25 c-43 -37 -125 -60 -191 -55 -47 4 -57 2 -76 -19 l-21
-23 29 0 c16 0 73 -2 127 -4 l99 -3 26 40 c38 56 51 75 98 138 23 30 56 83 73
116 29 57 33 62 73 68 61 10 86 29 114 88 26 57 33 164 13 184 -9 9 -9 23 -1
54 6 24 9 46 6 51 -7 11 -42 10 -49 -2 -11 -18 -22 -11 -28 18 -6 31 -49 82
-69 81 -7 0 -4 -5 8 -10 48 -24 78 -140 56 -219 -9 -31 -9 -28 -8 32 1 71 -2
77 -31 83 -10 2 -19 4 -20 5 -8 7 -30 5 -40 -3 -9 -6 -13 -5 -13 3 0 8 -12 11
-34 8 -23 -2 -32 0 -29 8 9 25 -35 7 -121 -49 -48 -31 -95 -57 -104 -57 -9 0
6 11 34 25 73 37 140 90 174 136 54 76 78 210 42 242 -23 21 -93 36 -169 37
-63 0 -88 16 -36 22 19 2 36 16 54 43 15 22 26 41 24 43 -6 6 -93 4 -115 -3
-11 -3 -18 -11 -15 -16 3 -5 0 -6 -7 -4 -8 3 -31 -10 -53 -28 l-39 -34 26 -34
c30 -39 68 -144 68 -189 0 -30 -14 -41 -23 -17 -8 21 -75 35 -162 33 -44 -1
-83 3 -87 8 -4 6 -12 5 -21 -2 -28 -23 -12 25 21 62 34 39 42 57 17 36 -9 -7
-18 -10 -22 -6 -3 3 -18 -1 -32 -10 -20 -12 -18 -8 8 16 30 29 31 31 10 25
-13 -4 -64 -27 -114 -51 -49 -24 -91 -44 -93 -44 -2 0 4 7 13 16 21 22 13 27
-18 13 -15 -7 -24 -16 -20 -22 3 -6 1 -7 -6 -3 -16 10 -109 -62 -172 -133 -55
-62 -64 -61 -20 2 34 50 108 121 173 165 61 42 202 110 245 118 38 7 39 2 -8
125 -47 123 -139 259 -209 309 l-28 20 11 -30 c6 -16 15 -30 20 -30 4 0 5 6 1
13 -4 6 9 -3 29 -22 20 -19 34 -38 31 -43 -8 -13 16 -39 29 -31 6 3 7 1 3 -5
-6 -10 15 -54 34 -72 3 -3 5 -12 5 -20 0 -8 5 -14 10 -13 6 1 11 -17 12 -40
l3 -42 -48 85 c-59 104 -98 167 -110 174 -5 3 -12 -27 -15 -66 -8 -93 -47
-174 -124 -256 -83 -88 -92 -85 -95 36 -3 93 -3 95 -12 45 -9 -54 -25 -63 -27
-15 0 15 -4 36 -9 47 -5 12 -6 -23 -4 -82 3 -69 1 -103 -6 -103 -6 0 -9 -4 -6
-9 4 -5 -4 -4 -16 2 -13 5 -47 47 -76 91 l-53 81 7 110 c3 61 8 113 11 118 2
4 0 7 -5 7 -10 0 -22 -102 -22 -187 0 -42 -3 -53 -16 -53 -26 0 -75 -41 -90
-74 -7 -17 -13 -26 -14 -20 0 13 -81 50 -126 58 -76 14 -87 18 -73 27 12 7 11
9 -1 9 -8 0 -21 13 -28 30 -7 16 -23 39 -36 51 l-23 22 24 65 c37 101 24 122
-16 27 -28 -68 -39 -84 -75 -106 -43 -27 -76 -78 -76 -121 0 -17 -3 -20 -9 -9
-20 31 22 111 73 142 17 10 27 19 21 19 -5 0 -17 -4 -25 -10 -16 -10 -44 6
-35 20 3 5 1 11 -5 15 -9 6 -14 -6 -11 -30 0 -5 -12 -10 -28 -10 -19 0 -27 4
-24 13 3 6 11 12 18 12 26 0 26 20 1 30 -29 11 -34 28 -12 36 8 3 12 12 9 21
-5 11 -8 12 -14 2 -6 -10 -11 -10 -26 1 -15 12 -16 12 -5 0 14 -17 16 -30 2
-30 -5 0 -12 11 -16 25 -7 28 -20 20 -47 -30 -14 -26 -16 -27 -17 -8 0 12 6
24 13 26 9 4 9 6 0 6 -7 1 -10 8 -7 16 4 8 10 13 14 10 5 -3 6 4 3 14 -5 18
-6 18 -22 3 -10 -10 -18 -19 -18 -22 0 -3 -5 -16 -11 -30 -8 -19 -11 -20 -11
-7 -1 23 60 182 87 225 48 81 264 200 379 211 37 4 74 10 81 14 7 5 31 34 54
64 36 50 42 54 53 40 11 -15 15 -13 36 18 13 19 28 35 32 35 5 0 6 4 2 9 -3 5
-1 12 4 16 6 3 8 12 4 20 -3 8 0 15 6 15 7 0 14 -6 17 -14 5 -12 9 -12 25 2
10 9 19 22 19 28 0 6 14 14 30 17 22 5 30 12 30 27 0 51 -34 163 -66 215 -31
52 -36 75 -15 75 5 0 45 -34 90 -75 80 -74 112 -96 75 -52 -10 12 -23 25 -29
30 -6 4 -1 15 13 27 13 11 20 25 17 31 -6 8 -2 8 14 0 20 -11 25 -8 22 13 -1
5 5 6 13 3 13 -5 13 -1 0 35 -23 66 -20 71 31 66 43 -5 63 6 28 15 -10 3 -3 5
16 6 31 1 33 3 26 28 -11 45 -61 116 -96 137 l-33 19 60 23 c46 18 80 23 154
24 92 0 144 12 110 24 -8 3 -57 12 -107 21 -129 22 -159 37 -63 31 41 -3 109
-10 150 -16 81 -13 160 -7 199 14 24 13 23 14 -35 30 -84 24 -111 34 -93 35
32 2 239 72 239 81 0 13 -4 13 -47 -5 -69 -29 -332 -86 -364 -79 -17 4 -20 3
-11 -4 30 -21 -85 -23 -121 -2 -1 1 -14 -3 -29 -9 -19 -7 -28 -7 -28 0 0 6 -4
8 -8 5 -5 -3 -25 -6 -45 -8 -21 -1 -37 -6 -37 -10 0 -4 -5 -8 -11 -8 -5 0 -7
6 -3 12 6 10 4 10 -7 2 -14 -11 -25 -13 -81 -15 -15 0 -30 -5 -34 -10 -4 -6
-11 -6 -20 2 -8 6 -14 7 -14 2 0 -9 -33 -14 -83 -14 -10 0 -15 -5 -11 -11 4
-7 -5 -9 -29 -6 -20 2 -34 1 -32 -2 2 -3 -5 -6 -15 -6 -10 0 -16 4 -14 8 3 4
-2 8 -10 8 -9 0 -16 -4 -16 -10 0 -5 -9 -10 -19 -10 -11 0 -23 -4 -26 -10 -3
-5 -12 -10 -18 -10 -7 0 -6 4 3 10 9 6 10 10 3 10 -6 0 -14 -4 -17 -9 -3 -5
-41 -13 -83 -19 -103 -15 -83 -13 -289 -18 -155 -3 -181 -2 -181 11 0 18 14
20 20 3 3 -10 8 -10 18 1 9 9 10 11 1 7 -7 -4 -15 -1 -18 8 -5 12 -10 13 -25
5 -10 -5 -19 -6 -19 -2 0 4 -5 1 -11 -7 -8 -12 -9 -11 -5 6 5 15 2 21 -9 21
-9 0 -14 -5 -12 -12 3 -6 -4 -11 -14 -11 -11 0 -19 4 -19 8 0 4 5 8 12 8 9 0
9 3 0 12 -18 18 -42 19 -35 0 4 -9 2 -13 -4 -9 -6 4 -14 1 -16 -5 -3 -7 -4 2
-3 19 2 18 -1 30 -5 27 -5 -3 -9 -11 -9 -17 0 -7 -15 -12 -34 -13 -19 0 -33 3
-30 8 3 5 10 6 15 3 5 -4 17 -1 26 5 17 11 17 11 1 6 -23 -7 -50 3 -42 15 3 5
2 8 -3 7 -4 -1 -17 3 -29 9 -16 9 -21 9 -21 -1 0 -7 7 -13 15 -12 8 0 17 -5
20 -13 3 -10 1 -11 -9 -5 -8 5 -18 9 -22 9 -5 0 -14 9 -20 20 -7 11 -21 21
-32 22 -18 1 -18 0 -4 -10 14 -11 14 -14 2 -26 -12 -11 -14 -11 -11 1 2 11
-34 58 -46 58 -3 0 -3 -9 -1 -20 2 -11 -1 -22 -6 -26 -5 -3 -8 -2 -7 3 4 14
-54 103 -64 97 -5 -3 -3 -11 6 -17 10 -8 13 -17 7 -26 -6 -9 -11 -10 -15 -2
-4 6 -1 11 6 11 8 0 6 5 -4 11 -10 5 -18 20 -18 32 -1 20 -2 20 -16 -5 -19
-36 -25 -35 -14 2 5 17 5 29 -1 27 -4 -1 -20 12 -34 28 -15 17 -24 24 -20 17
9 -17 -65 -13 -83 5 -7 7 -10 13 -6 13 10 0 -29 29 -39 30 -5 0 -5 -5 -1 -12
5 -7 2 -9 -8 -5 -9 3 -20 1 -26 -5 -6 -6 -12 -6 -17 3 -5 7 -4 10 2 6 6 -4 20
4 32 17 16 17 18 23 7 23 -8 0 -12 -5 -9 -10 4 -6 -1 -8 -11 -4 -10 4 -15 3
-11 -3 3 -6 3 -10 0 -10 -11 0 -35 28 -35 41 0 8 -4 8 -15 -1 -13 -11 -18 -10
-29 5 -8 12 -19 16 -31 11 -14 -5 -17 -2 -13 19 4 21 3 23 -9 13 -8 -6 -12
-17 -9 -25 10 -25 -3 -13 -18 18 -9 17 -13 37 -9 43 3 6 -4 1 -16 -11 -28 -29
-35 -29 -20 -1 6 13 8 20 4 16 -5 -4 -15 -2 -23 5 -13 9 -14 9 -8 0 12 -20
-18 -15 -47 7 -14 11 -32 18 -39 15 -8 -3 -23 4 -33 15 -19 20 -18 21 1 15 18
-6 18 -6 0 5 -14 9 -24 9 -44 1 -22 -10 -24 -10 -13 2 9 12 8 15 -6 13 -10 0
-18 6 -18 14 0 8 -5 15 -10 15 -5 0 -9 -7 -7 -15 2 -9 0 -11 -5 -5 -9 11 -29
18 -54 19 -10 0 -15 6 -11 14 4 12 1 12 -17 3 -23 -13 -41 -7 -40 12 0 9 2 9
6 0 2 -7 9 -13 15 -13 6 0 6 6 -2 15 -9 11 -17 12 -31 4 -18 -9 -24 -5 -19 16
1 5 -1 7 -5 3 -7 -6 -38 26 -94 99 -21 26 -21 26 -10 3 7 -14 15 -27 18 -30 3
-3 21 -27 39 -55 19 -27 25 -41 15 -30 -10 11 -33 30 -50 42 l-32 23 -19 -25
c-23 -29 -29 -31 -29 -10 0 8 4 12 9 9 4 -3 8 1 8 9 0 11 -7 13 -22 9 -12 -3
-19 -1 -15 5 3 5 0 10 -8 10 -19 0 -19 -6 3 -31 38 -44 -194 142 -272 218 -74
72 -178 197 -260 311 -26 37 -24 36 19 -10 26 -27 58 -65 72 -82 30 -38 43
-41 50 -12 14 51 94 200 125 230 18 18 26 28 18 24 -8 -5 -4 3 10 17 14 15 27
25 29 22 3 -2 -1 -10 -7 -16 -16 -16 -15 -33 1 -20 10 9 12 4 12 -22 l-2 -33
51 51 c70 71 110 88 195 84 38 -2 67 -6 65 -10 -2 -4 5 -9 15 -13 11 -3 38
-39 61 -81 79 -147 161 -232 336 -349 103 -69 358 -203 310 -162 -28 22 -28
25 -14 46 24 33 78 70 113 77 23 4 45 -1 74 -16 37 -18 48 -20 98 -10 121 22
348 4 476 -37 45 -15 86 -26 90 -25 18 5 76 -41 164 -130 51 -51 94 -97 95
-103 2 -5 9 -9 16 -8 7 0 11 -2 8 -5 -3 -3 -1 -11 5 -18 7 -9 4 -24 -10 -53
-12 -22 -21 -48 -21 -58 1 -10 14 8 29 40 16 31 36 66 45 76 25 27 71 44 101
37 39 -10 92 -63 121 -122 l26 -54 57 2 56 2 -50 3 c-57 5 -79 17 -35 20 16 1
42 9 57 17 l28 15 -25 2 c-14 2 -34 4 -45 5 -11 1 -27 3 -35 3 -12 1 -13 3 -1
10 10 7 10 10 1 16 -7 4 -16 2 -20 -5 -5 -9 -9 -8 -13 3 -7 19 39 37 94 37 29
0 43 -6 63 -31 25 -30 26 -32 9 -45 -17 -12 -16 -13 5 -7 32 8 28 37 -10 67
l-32 25 42 41 c36 36 46 41 79 38 34 -3 40 -8 61 -48 28 -56 29 -105 3 -120
-11 -5 -55 -16 -98 -24 -50 -9 -65 -15 -43 -15 48 -1 186 33 252 62 30 14 93
50 139 82 76 52 87 57 126 52 73 -8 153 -86 153 -149 0 -14 -16 -57 -35 -95
-19 -37 -26 -58 -16 -45 11 12 21 19 24 15 2 -5 2 -3 1 4 -2 7 2 15 8 19 7 4
8 3 4 -4 -4 -7 -3 -12 2 -12 6 0 12 7 16 15 3 8 10 15 15 15 11 0 3 -67 -11
-94 -7 -13 -6 -21 2 -26 9 -6 9 -9 -1 -13 -8 -3 0 -5 16 -4 17 0 36 -2 43 -7
7 -4 18 -4 25 1 6 4 19 8 27 8 8 0 14 8 14 18 -1 9 2 17 7 17 5 0 9 -5 9 -10
0 -6 10 -2 22 10 23 21 44 26 50 11 2 -5 11 2 22 16 18 25 18 25 -2 14 -11 -6
-24 -11 -29 -11 -4 1 5 8 20 16 22 12 31 13 43 3 8 -6 17 -9 21 -5 3 3 2 6 -4
6 -6 0 -14 7 -17 16 -3 8 -2 13 3 10 5 -3 19 3 31 14 13 11 26 20 30 20 4 0
31 23 60 50 51 49 52 73 1 28 l-26 -23 24 28 c14 15 31 27 38 27 8 0 12 4 9 9
-4 5 -2 11 4 13 15 5 -12 58 -30 59 -10 0 -8 3 5 9 14 6 15 9 5 9 -9 1 -22 7
-28 13 -7 7 -16 13 -20 14 -12 1 -127 56 -132 62 -3 4 -15 7 -27 8 -18 0 -20
-2 -11 -13 8 -11 7 -12 -6 -7 -9 3 -16 11 -16 17 0 5 -10 2 -21 -9 -21 -19
-22 -19 -15 4 4 12 4 22 -1 21 -24 -4 -43 2 -37 13 4 7 3 8 -4 4 -24 -15 -54
-16 -49 -2 6 16 -40 29 -49 14 -3 -5 -29 23 -57 61 -207 281 -344 428 -492
530 -80 56 -214 121 -250 121 -47 1 -47 14 0 100 35 62 43 85 34 91 -7 4 -16
6 -20 3 -4 -2 -9 -1 -12 3 -2 5 -2 2 0 -5 3 -15 -40 -6 -46 10 -5 14 -41 -23
-41 -42 0 -10 -7 -23 -15 -30 -9 -7 -13 -15 -11 -18 9 -8 39 29 40 50 1 21 26
39 26 19 0 -6 -5 -11 -11 -11 -8 0 -7 -6 2 -17 7 -10 10 -15 5 -11 -4 4 -19
-5 -31 -20 -19 -21 -26 -24 -36 -15 -10 10 -9 17 7 35 l19 23 -23 -19 c-12
-11 -20 -26 -17 -34 4 -10 0 -12 -10 -8 -9 3 -13 2 -10 -4 3 -6 15 -10 26 -10
24 0 23 -31 -1 -37 -13 -4 -13 -3 0 6 8 6 10 11 4 11 -6 0 -17 -7 -24 -15 -10
-12 -7 -15 14 -21 14 -3 26 -10 26 -15 0 -14 -7 -11 -78 31 -209 126 -599 165
-1157 115 -230 -21 -396 -38 -484 -50 -57 -8 -106 -13 -108 -11 -2 2 -21 0
-41 -5 -20 -5 -57 -11 -82 -14 -35 -4 -40 -3 -22 5 12 5 22 12 22 14 0 10 -35
-7 -47 -22 -8 -9 -13 -11 -13 -4 0 6 -8 9 -17 6 -15 -5 -15 -4 -3 4 8 6 18 8
24 5 5 -3 6 -1 2 5 -8 14 -62 8 -59 -7 2 -6 -2 -11 -7 -11 -6 0 -10 5 -10 11
0 5 -5 7 -10 4 -6 -4 -8 -12 -4 -18 3 -7 0 -5 -8 3 -18 22 -22 20 -120 -33
-48 -26 -91 -47 -95 -47 -4 0 6 12 22 27 16 16 33 28 38 28 4 0 11 5 15 10 4
6 19 16 35 24 15 8 24 17 20 20 -7 6 -14 51 -8 51 2 0 11 -3 21 -7 16 -6 16
-7 -1 -13 -11 -4 -14 -9 -8 -13 6 -4 19 3 29 15 11 12 13 18 7 14 -7 -4 -13
-3 -13 3 0 5 8 12 18 15 9 2 1 4 -18 3 -19 0 -40 -5 -47 -10 -8 -6 -11 -2 -10
12 0 11 5 17 11 14 5 -3 6 -1 2 5 -4 7 -1 12 8 12 9 0 16 5 16 10 0 6 -13 4
-30 -5 -19 -10 -30 -11 -30 -5 0 6 -5 8 -12 4 -7 -4 -8 -3 -4 4 4 7 0 12 -11
13 -14 0 -15 2 -3 6 25 9 40 25 34 35 -3 5 -12 4 -20 -3 -19 -16 -18 -4 2 15
14 15 14 16 -1 16 -9 0 -26 -5 -38 -11 -21 -9 -21 -9 -4 5 18 14 14 16 -45 35
-91 29 -32 26 87 -5 11 -3 -16 13 -60 34 -85 41 -155 103 -155 137 1 15 4 13
14 -10 7 -17 20 -36 28 -43 13 -11 13 -6 1 40 -11 39 -13 88 -9 183 8 218 70
413 188 592 136 206 292 351 473 438 118 57 187 75 320 82 285 14 443 -103
545 -405 16 -48 30 -78 30 -67 0 29 -35 170 -60 240 -34 100 -40 119 -35 123
2 2 18 -22 35 -54 36 -69 30 -35 -8 46 -32 69 -148 188 -217 223 -232 117
-611 -4 -885 -282 -184 -186 -322 -418 -394 -662 -24 -79 -25 -81 -22 -34 7
97 62 232 174 430 87 154 200 290 471 567 134 137 152 152 240 197 104 53 221
97 346 132 76 21 231 30 315 18 31 -5 41 28 11 39 -11 4 -20 12 -19 17 0 15
-121 53 -173 54 -105 2 -316 -80 -476 -185 -79 -51 -328 -233 -365 -266 -8 -7
-37 -33 -64 -58 -28 -25 -18 -13 20 25 288 286 607 471 915 529 97 19 216 22
206 5 -4 -6 -13 -8 -20 -5 -7 2 -26 1 -42 -4 -26 -8 -24 -8 16 -9 62 -1 120
-32 180 -96 l52 -55 17 31 c9 17 28 45 41 61 20 24 29 28 50 22 14 -3 71 -17
126 -29 109 -25 372 -97 503 -138 45 -14 82 -24 82 -21 0 12 -132 67 -238 100
-67 21 -120 39 -118 41 2 2 57 -12 122 -31 66 -20 129 -37 141 -39 11 -1 29
-9 39 -17 14 -12 16 -12 10 -1 -7 10 -3 12 15 6 17 -5 21 -4 14 3 -5 6 -63 29
-127 51 -65 22 -130 47 -145 55 -66 36 21 13 193 -49 179 -65 371 -152 441
-199 20 -14 40 -23 45 -20 5 3 25 -7 45 -22 35 -27 37 -20 4 21 -8 11 26 -23
77 -75 91 -94 106 -97 49 -10 l-29 45 39 -42 c21 -23 55 -65 76 -93 41 -55 59
-61 33 -11 -26 50 -19 48 42 -10 31 -30 65 -61 75 -69 18 -13 18 -12 4 21 -8
19 -20 33 -28 31 -11 -3 -12 -1 -1 9 10 11 24 0 75 -53 70 -76 129 -108 197
-107 l45 0 -51 20 c-28 11 -59 28 -68 38 -15 16 -11 16 29 -4 59 -30 139 -40
201 -25 27 6 57 12 67 13 9 1 17 4 17 8 0 4 -35 55 -77 115 -124 176 -217 256
-341 294 -96 30 -144 26 -219 -15 -35 -19 -63 -33 -63 -31 0 2 51 37 113 78
106 71 209 165 236 216 14 26 2 29 -25 5 -38 -35 -58 -49 -50 -35 4 7 9 24 10
36 3 21 0 23 -24 16 -15 -4 -49 -17 -76 -29 -26 -12 -46 -20 -43 -17 2 2 41
31 87 65 46 34 85 68 89 76 14 39 -74 211 -141 274 -31 29 -33 41 -7 41 11 0
57 12 103 27 l83 26 -35 10 c-60 16 -220 -11 -220 -38 0 -6 14 -27 31 -46 71
-79 151 -220 135 -236 -16 -16 -82 69 -127 164 -53 111 -73 132 -156 163 -78
29 -113 49 -113 63 0 15 77 97 105 113 18 10 16 15 -37 95 -30 47 -76 106
-102 131 -44 45 -49 47 -121 53 -41 4 -87 4 -102 0 -16 -3 -37 -8 -48 -9 -11
-2 -39 -8 -61 -15 -23 -6 -60 -13 -83 -15 -25 -3 -56 -15 -78 -32 -20 -15 -33
-21 -28 -13 13 21 -123 -100 -252 -225 -62 -60 -113 -105 -113 -100 0 4 -6 -1
-14 -11 -8 -11 -12 -24 -9 -29 4 -5 1 -6 -4 -3 -6 4 -16 -6 -23 -22 -6 -16
-21 -38 -32 -48 -22 -19 32 72 80 137 48 63 168 184 255 255 69 57 82 71 65
73 -21 4 -148 -45 -148 -57 0 -3 -12 -7 -26 -8 -15 0 -30 -7 -35 -15 -6 -9 -9
-9 -9 -1 0 7 -7 10 -16 6 -15 -6 -15 -4 -1 18 18 28 98 215 117 272 6 21 9 41
6 44 -3 4 -6 0 -6 -8 0 -8 -9 -20 -21 -27 -17 -11 -20 -11 -14 0 3 7 -3 1 -15
-14 -12 -16 -28 -28 -36 -28 -8 0 -11 -6 -7 -16 4 -12 2 -15 -8 -12 -17 6 -14
9 -128 -132 -100 -123 -130 -156 -116 -130 5 8 23 36 41 61 22 31 29 46 19 46
-8 0 -12 -4 -9 -9 3 -4 -2 -8 -10 -8 -8 0 -22 -8 -32 -17 -10 -10 -20 -16 -22
-14 -6 5 -82 -70 -82 -80 0 -4 -9 -10 -19 -14 -12 -4 -18 -12 -14 -21 3 -7 0
-14 -6 -14 -6 0 -11 -7 -11 -16 0 -8 -4 -13 -9 -10 -11 7 -35 -20 -28 -31 3
-5 -1 -17 -9 -28 -8 -10 -14 -13 -14 -7 0 7 -4 12 -9 12 -5 0 -7 -9 -4 -19 7
-26 -30 -47 -46 -27 -10 12 -7 14 13 12 15 -2 26 1 26 5 0 5 -5 9 -11 9 -8 0
-7 5 1 15 7 9 20 13 29 10 14 -5 14 -4 -1 11 -13 13 -20 15 -31 6 -8 -7 -16
-9 -19 -7 -3 3 -11 -8 -18 -24 -11 -27 -10 -33 9 -57 15 -20 18 -30 11 -40 -8
-9 -7 -14 1 -20 8 -4 9 -3 5 4 -4 7 -2 12 3 12 18 0 12 -38 -6 -49 -15 -9 -16
-12 -4 -20 27 -18 2 -37 -125 -95 -177 -80 -193 -89 -188 -97 2 -4 -1 -11 -7
-15 -8 -4 -9 -3 -5 4 4 7 4 12 0 12 -9 0 -188 -115 -219 -140 -11 -9 -38 -27
-60 -39 l-40 -23 25 22 c14 12 25 26 25 30 0 4 11 17 25 29 l25 22 -30 -15
c-16 -8 -57 -30 -89 -50 -77 -46 -99 -47 -26 -1 30 19 54 40 52 46 -2 7 4 9
13 5 9 -3 14 -2 11 3 -3 4 42 41 99 80 58 40 105 74 105 77 0 6 -11 0 -65 -36
-62 -42 -74 -45 -31 -8 22 18 49 41 60 51 21 18 21 18 -4 6 -66 -32 -294 -211
-384 -303 -39 -39 -56 -53 -39 -31 53 69 265 279 332 329 34 26 60 41 56 34
-5 -7 13 7 38 31 25 24 44 48 41 53 -9 14 -54 -16 -164 -108 -98 -81 -104 -79
-20 7 19 20 80 73 135 119 55 46 101 87 103 91 2 4 -9 6 -24 3 -31 -6 -164
-108 -279 -215 -45 -41 -101 -91 -124 -109 -49 -40 -102 -116 -131 -191 -24
-60 -60 -122 -67 -115 -7 7 56 152 84 193 15 22 18 32 8 23 -9 -8 -35 -40 -56
-72 -22 -32 -42 -58 -45 -58 -7 0 5 20 24 43 8 9 12 20 8 24 -3 4 22 36 56 72
35 37 20 25 -32 -26 -81 -78 -112 -100 -205 -147 -60 -30 -127 -72 -148 -92
-46 -45 -43 -36 33 116 28 56 49 104 47 106 -2 3 -23 -27 -46 -66 -26 -43 -47
-68 -53 -64 -7 5 -9 2 -6 -8 4 -8 0 -15 -7 -15 -10 0 -7 14 11 49 15 30 29 46
36 42 7 -5 9 -2 6 7 -3 8 7 27 23 44 18 17 27 35 24 44 -3 9 -3 12 1 9 6 -7
35 27 91 105 23 34 25 40 11 53 -12 12 -17 13 -25 2 -29 -34 -212 -346 -263
-448 -51 -101 -111 -241 -109 -255 3 -21 -25 -135 -33 -135 -6 0 -7 8 -3 18 4
9 11 39 16 67 7 42 6 53 -10 68 -18 18 -19 18 -57 -15 l-38 -33 33 42 c24 30
31 47 26 60 -5 10 -7 22 -6 26 1 5 -4 7 -11 4 -7 -2 -12 -10 -10 -17 2 -10 0
-11 -10 -3 -9 8 -23 8 -50 -2 -45 -15 -47 -10 -11 28 23 23 25 27 8 22 -17 -6
-16 -3 5 15 20 17 21 19 4 11 -35 -17 -92 -88 -105 -131 -11 -35 -9 -54 11
-143 12 -56 24 -127 26 -157 2 -30 11 -115 20 -188 9 -73 14 -135 12 -137 -2
-3 -48 -11 -102 -18 l-97 -13 6 25 c23 86 45 213 45 257 0 29 -12 92 -26 140
-14 49 -30 127 -34 174 -10 96 -18 128 -49 187 -29 57 -44 65 -35 18 5 -31 4
-36 -7 -30 -12 7 -12 6 -1 -7 7 -8 9 -24 5 -33 -3 -11 -2 -16 3 -12 5 3 10
-13 10 -36 1 -62 9 -99 29 -132 16 -28 15 -27 -16 6 -50 53 -88 99 -82 99 4 0
-2 9 -12 20 -15 16 -21 18 -33 7 -13 -10 -15 -9 -9 6 4 10 3 16 -2 12 -5 -3
-12 3 -14 12 -3 10 -5 2 -6 -17 -1 -41 45 -142 83 -183 14 -16 36 -47 47 -70
l21 -42 -43 41 c-24 23 -65 55 -91 73 -54 36 -78 66 -78 98 0 13 -4 23 -9 23
-14 0 -58 -62 -103 -145 -24 -45 -44 -72 -48 -65 -5 8 -11 6 -20 -5 -11 -13
-10 -18 3 -33 14 -15 14 -24 1 -77 -46 -197 20 -387 180 -512 23 -18 57 -54
76 -81 l32 -47 -42 48 c-42 48 -119 107 -139 107 -17 0 -13 -174 4 -249 9 -35
13 -66 10 -69 -3 -3 -5 1 -5 9 0 8 -16 41 -36 74 -24 39 -29 54 -16 42 21 -19
21 -19 17 18 -4 44 -20 63 -60 70 -32 6 -71 -12 -47 -22 7 -2 17 -14 23 -25
11 -20 10 -20 -18 1 -15 11 -68 30 -118 42 -122 28 -173 52 -181 84 -3 14 -9
25 -13 25 -11 0 -31 48 -31 74 0 12 -3 26 -7 30 -4 4 -6 25 -4 46 2 34 0 39
-15 33 -12 -4 -15 -2 -12 8 3 8 13 13 23 11 10 -2 14 1 10 7 -3 6 -22 10 -40
8 -20 -3 -32 0 -29 5 3 5 12 7 20 4 8 -3 14 -1 14 5 0 6 6 7 13 3 6 -4 9 -4 5
1 -4 4 -3 14 4 22 8 11 7 12 -6 7 -20 -8 -21 9 -1 26 8 7 15 17 15 23 0 5 -8
0 -19 -11 -10 -12 -24 -22 -32 -22 -8 0 -7 -4 5 -13 16 -12 16 -14 -11 -25
-21 -9 -24 -9 -11 0 15 11 15 13 -4 30 -11 10 -26 15 -32 11 -6 -4 -2 4 9 16
l20 23 -25 -3 c-21 -3 -25 0 -22 20 2 23 2 24 -17 7 -12 -11 -21 -14 -26 -7
-3 6 -1 11 5 11 6 0 8 5 4 11 -3 6 -1 22 7 35 10 20 10 36 -5 99 -10 42 -20
90 -23 107 -2 17 -9 42 -14 54 -11 32 -2 53 30 66 l26 11 -25 8 c-17 6 -6 7
36 5 115 -7 247 -86 352 -208 28 -34 52 -66 52 -70 0 -4 4 -8 10 -8 34 0 -130
188 -208 239 -52 33 -188 80 -236 82 -27 1 -28 2 -8 8 l24 6 -30 22 c-17 12
-40 36 -52 53 l-23 32 54 -27 54 -27 -32 32 c-34 33 -39 57 -27 118 8 41 29
47 73 22 l36 -21 -42 40 c-24 22 -43 45 -43 50 0 5 -8 17 -17 26 -9 10 -18 27
-19 39 -1 11 -3 21 -4 21 -3 0 -11 41 -16 80 -3 22 -16 85 -30 140 -14 58 -24
129 -24 170 l0 70 33 -35 c18 -19 40 -45 49 -58 15 -22 16 -22 11 20 -3 24 0
56 6 71 l11 28 28 -19 c50 -35 49 -35 50 26 1 41 -6 72 -25 112 -14 30 -25 66
-25 80 0 69 11 95 42 95 8 0 15 7 16 15 1 26 -7 31 -24 18 -16 -12 -16 -11 -1
7 16 19 22 55 10 55 -3 0 -6 20 -5 45 0 24 -3 42 -7 39 -4 -2 -10 0 -14 6 -3
5 2 10 12 10 11 0 14 3 7 8 -6 4 -10 15 -8 25 1 9 -2 15 -6 12 -5 -3 -11 -1
-14 4 -4 5 2 12 11 16 10 3 27 17 37 32 21 29 6 24 -32 -10 l-22 -21 1 565 c1
521 5 639 24 778 4 31 3 51 -3 51 -5 0 -29 -19 -52 -42z m-803 -1525 c-1 -10
-10 -33 -19 -50 -11 -23 -13 -33 -5 -33 7 0 1 -9 -13 -20 -14 -10 -21 -22 -17
-26 4 -4 7 -2 7 4 0 7 7 12 15 12 17 0 15 -3 -25 -48 -8 -10 -15 -29 -16 -42
-1 -35 -7 -52 -22 -69 -7 -7 -11 -20 -8 -28 3 -8 2 -12 -3 -8 -13 8 -20 -17
-10 -37 7 -12 4 -20 -8 -27 -10 -6 -12 -11 -5 -11 6 0 12 -5 12 -11 0 -6 -7
-8 -16 -5 -9 3 -12 2 -9 -5 13 -21 13 -60 0 -55 -16 6 -26 -16 -15 -34 11 -18
1 -40 -19 -40 -14 0 -14 -2 -1 -10 8 -5 10 -10 4 -10 -15 0 -24 -44 -13 -62 4
-7 3 -18 -3 -25 -5 -7 -8 -18 -6 -25 3 -7 -1 -18 -8 -25 -7 -7 -10 -22 -7 -33
3 -12 0 -20 -6 -20 -7 0 -9 -4 -6 -10 3 -5 1 -10 -5 -10 -7 0 -9 -7 -6 -16 5
-14 4 -15 -9 -4 -14 11 -14 10 -5 -14 9 -26 9 -27 -12 -20 -23 7 -23 7 -4 -15
17 -19 17 -21 3 -15 -13 4 -16 2 -12 -9 4 -8 -1 -22 -10 -31 -10 -10 -12 -16
-4 -16 9 0 9 -3 0 -14 -9 -11 -8 -18 5 -30 22 -23 13 -29 -14 -10 -15 10 -22
26 -22 48 0 137 112 503 226 737 23 47 52 109 64 137 23 54 32 65 27 35z m580
-1432 c-8 -10 -3 -8 16 3 16 11 27 14 27 7 0 -6 -5 -11 -10 -11 -6 0 -5 -6 2
-14 7 -8 15 -10 18 -6 6 9 50 -6 50 -18 0 -5 10 -14 23 -21 21 -11 21 -11 0
-6 -12 3 -24 1 -28 -5 -3 -5 1 -10 9 -10 19 0 21 -26 4 -33 -7 -3 2 -4 20 -3
39 4 41 -7 5 -40 -14 -13 -23 -27 -20 -31 4 -3 2 -12 -5 -20 -9 -11 -7 -12 7
-7 15 6 16 4 7 -13 -11 -21 1 -54 15 -39 4 5 3 11 -4 13 -7 2 -9 12 -6 20 6
14 8 14 14 -3 18 -47 0 -57 -49 -28 -25 15 -25 15 -8 0 11 -9 16 -17 10 -17
-5 -1 9 -5 31 -9 28 -6 11 -7 -58 -6 -53 0 -98 -2 -100 -5 -1 -3 -21 -9 -45
-13 -29 -4 -41 -3 -37 4 3 6 10 8 14 5 5 -2 8 8 7 23 -1 17 4 26 12 25 6 -2
12 2 12 8 0 6 7 9 14 6 10 -4 13 -1 9 9 -4 11 -9 12 -16 5 -7 -7 -15 -7 -25 1
-11 10 -13 8 -10 -8 2 -14 -2 -18 -15 -16 -15 3 -17 0 -8 -16 14 -26 -12 -53
-32 -33 -9 10 -8 11 6 6 11 -5 17 -2 17 8 0 21 -22 27 -38 10 -7 -7 -21 -13
-30 -12 -14 0 -14 2 -2 6 8 3 23 13 34 22 10 9 20 15 22 13 11 -7 36 17 29 27
-5 9 -11 7 -22 -6 -13 -17 -14 -17 -5 2 5 11 7 26 4 34 -3 10 2 12 20 8 23 -6
25 -4 20 19 -2 14 -8 21 -11 15 -11 -16 -50 -9 -43 8 4 10 7 11 10 3 2 -7 7
-12 12 -12 16 0 21 39 9 62 l-12 23 23 -20 c13 -11 20 -14 15 -6 -12 21 16 33
32 13 12 -16 13 -16 7 1 -3 9 -1 17 5 17 6 0 11 -4 11 -10 0 -5 5 -10 11 -10
8 0 8 4 0 14 -14 16 -63 18 -73 3 -4 -6 -10 -9 -13 -5 -3 3 2 14 12 24 17 17
17 18 0 11 -40 -15 -9 17 43 45 40 21 55 25 61 16 4 -7 2 -19 -4 -27z m214
-358 c17 -17 36 -82 85 -300 67 -298 78 -341 119 -473 35 -112 39 -129 27
-112 -7 11 -12 11 -25 -2 -17 -17 -32 -22 -23 -7 3 5 -2 12 -11 15 -9 4 -20 1
-25 -6 -4 -7 -8 -8 -8 -3 0 6 -5 3 -10 -5 -6 -9 -10 -10 -10 -3 0 7 8 17 18
22 9 6 13 11 8 11 -5 0 -3 7 4 15 10 12 15 13 28 3 14 -12 14 -10 1 10 -8 12
-17 22 -22 22 -4 0 -6 -4 -2 -9 3 -5 -5 -17 -17 -25 -21 -15 -23 -15 -30 5 -4
11 -11 18 -16 15 -4 -3 -16 11 -27 29 -10 19 -29 42 -42 50 -13 9 -21 20 -18
24 3 5 -2 11 -10 14 -10 4 -12 1 -9 -11 2 -9 -1 -7 -7 6 -7 12 -17 22 -23 22
-6 0 -2 8 9 17 16 13 17 15 3 10 -13 -5 -18 -1 -18 13 0 14 -5 18 -17 15 -10
-3 -5 1 11 9 29 13 29 14 8 21 -13 3 -21 13 -20 22 2 9 -3 17 -10 19 -7 1 -8
0 -2 -3 5 -2 7 -9 4 -14 -3 -6 0 -17 8 -26 11 -14 11 -15 -2 -10 -8 4 -23 10
-32 13 -10 4 -19 10 -19 15 -1 5 -3 12 -4 17 -2 4 -6 17 -10 30 -7 20 -9 21
-24 8 -11 -10 -21 -12 -31 -6 -12 8 -11 10 7 10 12 0 23 6 26 13 4 13 -13 59
-27 68 -5 4 -10 17 -11 30 -4 40 -5 43 -12 36 -3 -4 -13 -1 -22 6 -14 11 -14
10 -2 -5 8 -11 9 -18 3 -18 -6 0 -14 5 -17 10 -4 6 -12 7 -22 1 -18 -10 -29
-2 -51 38 -8 13 -9 20 -3 16 6 -3 11 -1 11 4 0 6 -9 11 -20 11 -11 0 -20 -6
-20 -12 0 -7 -8 -1 -17 12 -9 14 -22 28 -27 32 -7 5 -7 8 1 8 7 0 10 7 6 17
-4 11 -3 14 6 9 7 -5 10 -14 7 -21 -2 -7 1 -20 7 -29 11 -13 14 -12 31 11 11
15 14 23 7 19 -8 -6 -11 -2 -9 9 2 10 -4 20 -12 22 -9 3 -11 1 -5 -4 12 -10
16 -43 5 -43 -4 0 -10 10 -14 23 -3 13 -16 27 -28 33 -13 6 -18 9 -13 8 6 -1
11 11 12 27 1 16 -2 29 -8 29 -6 0 -8 -4 -5 -9 3 -4 -3 -16 -13 -25 -18 -17
-20 -16 -26 4 -6 18 -9 19 -23 8 -15 -12 -16 -11 -3 5 14 17 16 17 27 3 15
-22 23 -20 21 4 -1 11 -6 20 -12 20 -5 0 -21 12 -34 26 -19 19 -21 28 -12 37
10 9 11 8 6 -5 -4 -11 -2 -18 4 -18 6 0 11 5 11 10 0 6 5 10 11 10 8 0 8 -4 1
-13 -6 -7 -8 -17 -4 -23 8 -12 64 -25 57 -14 -3 4 5 10 16 13 18 5 19 8 8 20
-11 12 -16 11 -30 -7 -14 -17 -20 -19 -30 -8 -10 9 -10 12 0 12 7 0 10 4 7 9
-4 5 -1 11 6 13 7 3 3 13 -12 28 -17 17 -22 19 -17 6 6 -14 3 -16 -16 -11 -35
11 -39 11 -45 -4 -3 -9 0 -11 8 -6 9 6 11 4 5 -4 -5 -9 -10 -10 -18 -2 -13 13
-31 15 -23 3 2 -4 -4 -9 -15 -9 -28 -2 -24 2 26 32 107 62 248 95 397 92 95
-2 110 -5 129 -24z m3025 -1328 c24 -16 49 -94 40 -123 -11 -32 -93 -102 -120
-102 -50 0 -116 103 -133 208 l-6 32 99 0 c71 0 106 -4 120 -15z m224 -12
c157 -23 253 -56 307 -106 l46 -42 90 0 c63 0 92 -4 94 -12 3 -7 9 -13 15 -13
20 0 89 -63 113 -103 45 -79 47 -92 15 -115 l-28 -21 -93 56 c-133 79 -239
119 -434 165 -190 44 -278 77 -269 102 3 9 2 16 -4 16 -6 0 -15 14 -21 32 -6
17 -19 40 -28 50 -17 19 -16 19 37 13 30 -4 102 -13 160 -22z m-536 -7 c42
-18 100 -75 126 -126 16 -32 18 -44 9 -64 -24 -53 -132 -55 -186 -4 -56 52
-109 182 -81 199 20 13 95 10 132 -5z m1297 -360 c-8 -10 -8 -20 3 -41 8 -16
13 -32 10 -37 -3 -4 0 -8 6 -8 7 0 6 -6 -3 -15 -8 -8 -13 -28 -12 -45 2 -25
-2 -33 -22 -41 -50 -19 -61 -12 -78 43 -8 28 -15 57 -15 65 0 14 95 93 112 93
7 0 6 -5 -1 -14z m-808 -1458 c94 -54 224 -156 281 -219 52 -57 64 -100 46
-156 -14 -41 -44 -86 -53 -77 -3 3 -23 -4 -46 -16 l-41 -20 -1 27 c-1 16 -5
39 -10 53 -7 21 -8 19 -5 -12 7 -54 -10 -103 -45 -132 -38 -32 -47 -32 -55 -1
-3 14 -8 25 -10 25 -3 0 -18 -15 -33 -32 -16 -18 -44 -42 -62 -52 l-33 -19 20
29 c26 37 44 100 44 150 l-1 39 -18 -50 c-10 -27 -32 -78 -50 -112 -17 -35
-30 -66 -29 -70 1 -5 -5 -9 -14 -11 -11 -2 -17 8 -21 40 -5 49 -25 104 -33 95
-3 -3 1 -42 10 -85 10 -51 13 -88 8 -103 -9 -24 -9 -24 -25 7 -14 28 -20 31
-52 27 -41 -4 -143 20 -197 48 -21 11 -75 49 -120 85 l-83 65 69 -66 c51 -48
95 -79 163 -112 52 -25 92 -47 90 -49 -7 -8 -112 18 -147 36 -72 37 -158 112
-252 222 -53 62 -106 124 -118 138 -66 77 49 -90 132 -191 58 -71 97 -139 79
-139 -4 0 -28 24 -52 53 -63 76 -199 215 -234 240 -16 12 1 -12 39 -53 77 -83
111 -133 182 -265 55 -101 64 -120 40 -88 -24 32 -81 46 -122 28 l-33 -13 -45
52 c-46 54 -153 143 -161 134 -3 -3 22 -27 56 -54 34 -27 74 -65 89 -84 24
-31 112 -170 107 -170 -1 0 -16 4 -34 9 -24 7 -33 6 -37 -5 -3 -8 -2 -14 3
-14 5 0 8 -10 7 -22 -1 -17 -9 -24 -33 -29 -37 -7 -97 -50 -113 -79 -6 -11
-32 -34 -58 -51 -34 -23 -42 -26 -28 -11 11 12 14 22 8 22 -35 0 -64 18 -56
33 4 7 4 9 -1 5 -4 -4 -15 -2 -23 5 -13 10 -15 9 -9 -7 6 -16 3 -15 -25 6 -18
13 -47 35 -64 47 -31 22 -58 83 -68 149 -2 19 -7 36 -10 40 -13 12 -2 -63 18
-125 5 -16 2 -22 -11 -25 -14 -3 -7 -11 27 -32 84 -54 192 -148 182 -158 -7
-7 -41 14 -98 61 -49 39 -92 71 -95 71 -4 0 -10 -7 -13 -16 -4 -11 7 -29 35
-54 l42 -38 -24 -13 c-21 -11 -23 -11 -11 3 10 13 10 17 -4 22 -9 4 -19 4 -22
1 -3 -3 1 -5 8 -5 7 0 10 -3 7 -6 -4 -4 -13 -1 -21 5 -8 7 -17 8 -20 3 -3 -6
1 -12 9 -16 8 -3 15 -10 15 -16 0 -6 -10 -2 -21 9 -14 13 -20 27 -16 40 3 12
2 23 -3 26 -11 7 -20 -22 -13 -42 4 -13 3 -15 -5 -8 -7 6 -13 22 -14 36 -1 14
-8 26 -15 26 -6 0 -10 -4 -7 -8 2 -4 -4 -12 -13 -18 -10 -6 -13 -11 -7 -11 5
0 15 5 22 12 7 7 12 8 12 3 0 -14 -16 -37 -25 -37 -11 1 -34 36 -35 53 0 9 -6
22 -14 28 -11 9 -12 6 -8 -14 2 -14 0 -25 -5 -25 -15 0 -41 122 -32 147 5 12
4 25 -1 28 -4 3 -11 -8 -15 -25 -6 -27 -15 -35 -38 -31 -4 1 -3 -8 3 -19 8
-14 8 -20 0 -20 -6 0 -19 -19 -29 -42 -11 -26 -20 -37 -25 -30 -4 7 -3 12 2
12 5 0 9 7 9 15 0 10 -6 14 -16 10 -13 -5 -14 -4 -3 6 17 18 15 29 -5 22 -10
-3 -15 -3 -11 2 4 4 2 15 -5 23 -9 12 -9 14 0 9 8 -5 7 2 -2 20 -8 15 -15 34
-15 41 0 20 -20 14 -30 -10 -8 -22 -9 -22 -11 -3 -1 11 -3 27 -5 35 -1 8 -2
21 -3 28 -1 6 -6 12 -12 12 -8 0 -8 -4 0 -14 8 -10 9 -16 1 -21 -5 -3 -11 0
-11 7 -1 7 -3 24 -4 38 -1 13 -8 26 -14 28 -6 2 -11 8 -11 13 0 6 5 7 10 4 6
-3 10 1 10 9 0 9 6 16 13 16 6 0 4 5 -5 11 -10 5 -18 17 -18 25 0 9 5 12 11 8
7 -4 10 -1 7 7 -3 8 -10 13 -15 12 -5 -1 -8 8 -7 20 1 12 3 26 3 30 1 5 6 5
12 1 8 -5 8 -1 0 13 -6 11 -7 23 -4 27 3 3 1 6 -6 6 -9 0 -9 5 0 21 8 17 8 20
-1 14 -20 -13 1 19 45 67 68 74 72 84 18 45 -29 -20 -53 -32 -53 -27 0 6 6 10
13 11 9 0 9 2 0 6 -15 5 -17 3 75 81 57 49 68 54 63 28 -1 -5 5 -3 14 4 13 11
13 15 3 21 -9 6 -8 9 7 10 11 1 24 1 28 0 5 -1 5 4 2 10 -8 12 52 79 70 79 6
0 38 -16 71 -36 l59 -35 -47 44 c-27 24 -48 46 -48 50 0 3 14 1 32 -4 17 -5
34 -7 36 -4 3 3 12 -1 21 -7 9 -7 2 3 -14 22 -17 19 -41 50 -54 69 -22 32 -20
31 35 -15 54 -45 179 -117 248 -143 l27 -11 -18 25 c-10 13 -25 25 -33 25 -21
0 -149 76 -182 107 -17 17 -26 35 -26 54 1 16 5 26 10 23 5 -3 7 -13 3 -22 -3
-9 -3 -13 0 -10 4 4 31 -13 61 -37 29 -24 64 -49 76 -56 13 -6 33 -21 46 -33
14 -12 21 -15 17 -6 -3 8 -37 40 -75 70 -38 30 -67 56 -65 58 2 3 23 -11 47
-29 23 -19 38 -28 34 -20 -7 11 -4 13 12 9 12 -4 25 -2 28 3 3 5 9 7 14 4 5
-3 16 2 25 11 25 26 29 9 5 -24 -27 -37 -22 -53 31 -112 22 -25 37 -36 33 -25
-28 80 -27 110 7 184 41 90 49 89 83 -10 20 -56 55 -97 67 -78 6 10 11 10 25
-2 16 -13 16 -12 6 8 -11 21 -11 21 18 13 18 -5 30 -5 30 1 0 5 -5 9 -12 9 -6
0 -8 3 -5 7 4 3 2 12 -3 18 -7 9 -6 16 4 25 16 12 40 5 31 -10 -3 -4 3 -14 12
-21 9 -8 14 -9 10 -3 -7 12 78 11 146 -1 24 -4 37 -2 37 5 0 6 5 8 12 4 8 -5
9 -2 4 11 -6 16 -4 16 10 4 13 -11 18 -11 21 -1 3 6 9 12 14 12 6 0 7 -4 4
-10 -6 -9 8 -14 28 -11 4 0 7 -3 7 -8 0 -5 7 -12 16 -15 11 -4 15 -2 11 8 -4
10 0 14 14 11 17 -4 19 -2 8 11 -10 12 -9 13 5 8 14 -5 16 -2 11 22 -3 16 -2
22 1 14 4 -8 14 -25 23 -36 16 -21 18 -21 39 -4 11 10 18 21 14 25 -11 12 21
-6 41 -24 14 -11 18 -12 15 -2 -2 7 3 16 11 19 8 3 11 0 7 -6 -4 -6 2 -10 14
-9 14 1 19 6 15 16 -4 11 0 10 15 -4 18 -17 20 -17 20 -1 0 13 5 16 21 11 16
-6 20 -4 14 6 -11 19 6 1 33 -35 23 -30 28 -24 13 17 -7 18 -6 24 4 24 8 0 12
-4 10 -8 -6 -9 21 -20 29 -12 11 11 6 24 -6 17 -7 -4 -10 -3 -6 1 10 11 60 16
53 5 -7 -12 20 -19 36 -9 8 5 10 9 4 9 -12 1 -123 80 -112 80 5 0 41 -19 80
-42z m2 -660 c-25 -84 -102 -259 -145 -328 -27 -46 -50 -87 -50 -92 0 -17 -21
-7 -29 15 -5 12 -88 96 -185 186 -97 90 -176 167 -176 169 0 6 7 0 103 -86 58
-52 84 -65 74 -38 -3 8 2 20 11 28 15 12 16 11 3 -4 -19 -25 2 -23 24 2 17 19
41 18 30 -1 -3 -5 1 -6 9 -3 28 11 54 -16 82 -86 15 -39 29 -68 31 -66 2 2 -5
27 -16 55 l-20 52 35 -26 c19 -14 38 -24 43 -20 5 3 11 0 13 -6 4 -12 68 85
68 102 0 6 11 25 25 43 14 18 25 40 25 49 0 10 5 17 11 17 5 0 15 14 20 30 13
35 24 41 14 8z m-2155 -843 c63 -21 79 -24 108 -14 18 6 66 9 106 7 144 -7
285 -103 397 -271 73 -109 121 -199 94 -177 -10 8 -29 33 -43 55 -13 22 -34
48 -46 58 -11 10 -14 15 -6 11 8 -4 -5 15 -30 42 -25 26 -37 42 -27 35 42 -32
11 12 -57 82 -102 103 -180 142 -288 142 -48 0 -82 -5 -89 -12 -11 -10 -10
-13 4 -13 15 0 21 -11 15 -26 -2 -3 22 -15 52 -27 135 -55 233 -158 254 -267
l7 -35 -19 41 c-23 48 -65 84 -92 79 -11 -2 -20 0 -20 4 0 5 -17 9 -37 10
-110 3 -157 16 -148 38 4 13 3 14 -9 4 -11 -9 -16 -9 -22 0 -4 7 -3 9 3 6 6
-4 13 0 17 8 4 11 11 13 31 5 23 -9 85 -4 85 7 0 11 -30 33 -47 33 -10 0 -35
16 -56 35 -21 19 -42 35 -46 35 -5 0 -23 -21 -40 -47 -35 -54 -42 -43 -11 17
18 35 18 40 4 54 -32 32 -104 77 -134 83 -22 4 -28 8 -18 14 19 13 27 11 108
-16z m3679 -419 c34 -18 69 -63 106 -136 15 -29 39 -71 52 -92 22 -33 24 -41
14 -65 -7 -16 -23 -41 -38 -58 -28 -33 -27 -24 3 55 l17 45 -44 85 c-48 93
-80 117 -121 91 -34 -21 -126 -30 -139 -14 -10 11 -14 10 -24 -3 -11 -16 -13
-16 -32 3 -20 20 -53 27 -53 11 0 -5 -8 -7 -18 -4 -11 4 -32 -4 -52 -19 -45
-34 -50 -31 -14 7 28 31 28 31 2 12 -14 -10 -50 -39 -80 -63 l-53 -45 45 48
c25 26 67 64 95 84 44 33 61 39 160 54 141 21 141 21 174 4z m-3459 -164 c49
-4 59 -7 40 -13 -17 -5 -2 -7 45 -8 85 -2 113 -14 142 -66 24 -42 31 -117 14
-144 -6 -10 -8 -1 -5 25 2 24 -3 53 -13 75 -16 33 -22 37 -50 34 -23 -1 -33 2
-33 12 0 11 -4 11 -20 3 -16 -9 -19 -8 -13 6 4 12 3 15 -6 10 -6 -4 -20 -4
-29 0 -9 4 -24 8 -32 9 -31 5 -60 18 -60 27 0 5 5 6 10 3 6 -3 10 -1 10 4 0 6
-12 11 -27 11 -16 1 -39 8 -53 16 -16 10 -18 13 -5 8 11 -4 49 -9 85 -12z"/>
<path d="M6356 9205 c-9 -14 -24 -25 -34 -25 -13 0 -14 -2 -4 -9 20 -12 -26
-113 -238 -525 -99 -192 -179 -351 -177 -353 12 -11 53 56 122 202 44 93 122
251 172 352 51 100 104 211 118 245 14 35 37 80 50 100 14 21 21 38 16 38 -5
0 -16 -11 -25 -25z"/>
<path d="M8700 8863 c-39 -25 -80 -65 -102 -98 -17 -26 -16 -25 11 5 17 19 31
30 31 25 0 -6 -6 -17 -12 -24 -11 -10 -10 -12 1 -9 7 2 16 -3 19 -11 3 -10 -1
-12 -17 -8 -18 4 -20 3 -11 -8 13 -16 4 -56 -12 -52 -6 1 -13 -14 -15 -33 -3
-19 -10 -38 -16 -42 -6 -4 -8 -10 -4 -14 4 -4 0 -18 -9 -32 -8 -13 -13 -29
-11 -37 6 -15 -24 -15 -36 0 -5 6 -6 -3 -2 -18 4 -19 2 -26 -5 -22 -5 3 -10
-1 -10 -10 0 -10 5 -14 13 -10 6 4 5 1 -4 -7 -20 -17 -53 -150 -45 -183 5 -19
-1 -35 -22 -63 -31 -39 -61 -150 -47 -173 5 -7 4 -10 -3 -5 -7 4 -15 -14 -22
-49 l-12 -56 62 -66 c34 -36 66 -76 72 -89 14 -31 22 -30 47 5 23 31 27 46 11
36 -5 -3 -10 -1 -10 5 0 7 6 10 14 7 9 -4 24 9 40 33 21 32 23 38 8 34 -9 -4
-2 3 16 15 17 11 32 24 32 27 0 4 -7 1 -15 -6 -12 -10 -15 -10 -15 1 0 11 -2
11 -10 -1 -7 -10 -10 -11 -10 -2 0 7 6 15 13 18 8 3 14 11 15 19 1 8 3 22 4
30 1 8 5 15 10 15 5 0 6 5 2 12 -5 8 -2 9 10 5 10 -4 15 -3 11 3 -3 6 -13 10
-21 10 -8 0 -14 5 -14 11 0 5 5 7 12 3 8 -5 9 -2 5 9 -3 9 -2 19 3 22 6 4 10
11 10 17 0 6 -9 3 -20 -7 -11 -10 -20 -16 -20 -13 0 6 49 60 51 56 1 -2 3 -27
4 -56 4 -83 15 -74 16 14 0 43 4 116 7 161 4 44 5 80 2 78 -3 -2 -36 -55 -74
-118 -66 -112 -119 -177 -132 -164 -14 14 11 61 116 222 l110 169 1 155 c0 86
2 184 6 219 3 34 3 62 1 62 -2 0 -15 -7 -28 -17z"/>
<path d="M8347 7886 c-8 -19 -37 -143 -37 -155 0 -20 26 -5 28 16 2 29 21 67
29 59 3 -3 0 -14 -8 -23 -13 -16 -12 -17 4 -4 9 7 17 20 17 27 0 8 5 14 11 14
5 0 7 5 4 10 -4 6 -12 7 -18 4 -7 -4 -9 -4 -5 1 4 4 2 15 -5 23 -10 13 -9 14
9 4 27 -15 36 -36 21 -52 -9 -10 -8 -12 5 -7 11 4 17 2 15 -6 -1 -7 3 -11 8
-10 21 3 4 -79 -22 -109 -8 -9 -12 -22 -8 -28 3 -6 1 -9 -6 -8 -15 4 -18 -33
-4 -45 6 -5 0 -5 -12 -2 -21 6 -28 -2 -24 -27 0 -5 -4 -8 -10 -8 -6 0 -9 -6
-6 -14 3 -7 0 -19 -6 -25 -9 -9 -5 -10 13 -7 14 2 27 5 29 5 3 1 -3 7 -13 14
-18 13 -18 14 -1 21 10 3 20 4 23 1 3 -3 -1 -5 -9 -5 -11 0 -11 -2 -1 -8 17
-11 4 -43 -16 -40 -8 2 -17 -2 -19 -7 -2 -6 8 -12 22 -13 17 -1 25 3 25 14 0
11 6 14 23 8 21 -6 21 -6 4 13 -15 17 -16 22 -3 32 12 10 14 9 9 -7 -2 -11 0
-23 7 -27 17 -11 27 5 10 16 -12 9 -11 10 4 5 14 -5 17 -2 12 9 -4 12 -2 13
13 6 10 -6 21 -8 24 -4 3 3 14 -2 23 -11 15 -16 17 -16 30 1 12 17 14 15 25
-15 6 -18 13 -31 15 -29 7 7 -57 171 -94 241 -20 38 -57 92 -82 119 -39 42
-48 48 -53 33z"/>
<path d="M8436 7494 c-5 -14 -4 -15 9 -4 8 7 15 8 15 2 0 -5 -7 -15 -15 -22
-12 -10 -16 -9 -21 3 -8 22 -34 30 -34 11 0 -8 4 -12 10 -9 6 3 7 -1 4 -9 -4
-9 -11 -13 -18 -9 -15 11 -56 11 -50 1 3 -4 0 -8 -7 -8 -7 0 -10 -3 -7 -6 4
-3 16 0 28 6 16 9 25 9 35 0 8 -7 20 -8 26 -4 8 5 9 3 5 -5 -5 -7 -14 -10 -22
-7 -11 4 -13 -2 -9 -25 5 -27 3 -30 -12 -25 -14 6 -15 4 -6 -5 14 -14 36 -2
29 16 -4 12 16 28 39 30 17 1 36 16 31 24 -3 4 4 8 16 8 17 2 16 -1 -9 -24
-15 -15 -27 -33 -25 -41 2 -8 -1 -11 -7 -7 -6 3 -23 -3 -37 -14 -15 -12 -22
-21 -17 -21 6 0 16 6 22 14 14 17 54 17 47 1 -2 -6 2 -22 9 -34 l12 -24 21 21
c18 18 26 20 47 12 33 -12 35 -12 35 1 0 5 -3 8 -7 6 -5 -3 -18 -1 -29 3 -16
7 -21 16 -20 40 1 17 8 35 16 40 11 7 12 10 2 10 -7 0 -10 5 -7 10 3 6 1 11
-4 11 -6 1 -15 3 -21 4 -5 1 -17 3 -26 4 -10 0 -14 7 -11 15 3 8 -1 17 -9 20
-21 8 -21 8 -28 -10z"/>
<path d="M8303 7160 c3 -69 13 -163 22 -210 37 -188 34 -462 -11 -900 -20
-196 -66 -430 -85 -430 -4 0 -4 13 1 29 7 25 6 28 -11 24 -11 -3 -19 0 -19 6
0 7 5 9 10 6 6 -3 10 -1 10 5 0 6 6 8 13 4 6 -4 4 2 -6 13 -13 15 -15 22 -6
25 15 5 20 48 6 48 -5 0 -7 6 -4 14 4 10 0 14 -13 11 -13 -3 -17 1 -13 11 3 7
9 11 14 8 5 -3 9 0 9 5 0 16 -5 15 -59 -16 -2 -2 2 -9 9 -18 7 -8 9 -15 6 -15
-10 0 -36 27 -31 32 2 2 -5 4 -16 4 -19 0 -19 -1 3 -18 l23 -17 -28 5 c-18 3
-26 1 -22 -6 9 -14 -8 -13 -24 3 -10 10 -11 8 -5 -7 5 -14 4 -17 -5 -11 -8 4
-17 2 -23 -6 -8 -11 -9 -10 -4 4 3 9 0 17 -5 17 -6 0 -9 9 -6 20 3 11 1 20 -4
20 -5 0 -9 -10 -9 -22 0 -13 -5 -30 -11 -38 -9 -12 -10 -12 -5 4 5 14 2 17 -9
12 -11 -4 -14 -2 -9 6 5 8 2 9 -10 5 -9 -4 -15 -3 -12 2 8 13 -51 74 -66 69
-10 -4 -14 16 -15 85 -2 73 -9 111 -39 199 -20 60 -34 111 -31 114 2 3 37 12
76 22 l72 17 -6 35 c-10 52 -33 102 -45 95 -5 -3 -8 0 -5 7 10 26 -115 88
-148 74 -7 -2 -4 -5 6 -5 10 -1 15 -5 12 -11 -4 -6 -13 -5 -25 2 -10 7 -16 16
-14 20 7 11 -94 10 -115 -2 -10 -5 -59 -10 -108 -11 l-90 -1 55 -109 c44 -87
53 -112 43 -122 -10 -9 -11 -8 -5 7 6 15 4 17 -6 11 -9 -5 -11 -4 -6 3 4 7 4
12 -1 12 -4 0 -18 19 -31 43 -21 39 -72 88 -72 69 0 -4 11 -30 24 -58 77 -161
170 -557 196 -829 22 -238 0 -795 -36 -917 -4 -13 -1 -16 10 -12 8 3 12 13 9
22 -4 15 -3 15 6 2 8 -12 6 -19 -9 -32 -11 -9 -20 -25 -20 -36 0 -17 4 -19 27
-13 24 6 48 34 26 30 -20 -4 -19 3 6 30 14 16 30 26 35 21 10 -10 43 28 111
124 27 38 72 94 101 125 43 47 49 58 38 69 -16 14 -19 36 -5 28 5 -4 12 0 15
6 4 9 5 8 5 -2 -1 -8 -1 -22 0 -30 2 -23 31 18 31 44 0 16 2 18 9 7 11 -17 25
3 15 22 -4 6 -4 9 1 5 4 -4 16 2 26 14 11 11 19 18 19 14 0 -11 -54 -87 -85
-119 -42 -44 -116 -135 -175 -217 -94 -129 -165 -204 -186 -196 -7 3 -16 0
-20 -6 -4 -7 -3 -8 4 -4 7 4 12 3 12 -1 0 -12 -63 -68 -73 -65 -5 1 -6 -2 -3
-7 3 -5 -8 -21 -25 -35 -17 -14 -26 -26 -21 -26 6 0 25 12 43 28 18 15 30 21
25 15 -16 -28 9 -9 117 86 70 62 127 121 151 160 43 66 51 73 41 39 -6 -23 -6
-23 9 -3 8 11 19 25 24 30 5 6 12 17 15 25 4 13 6 12 6 -1 1 -8 -5 -21 -11
-29 -7 -8 -4 -7 8 3 11 9 23 15 26 12 3 -3 13 5 24 17 15 18 16 20 2 9 -12 -9
-18 -10 -18 -2 0 11 13 15 38 12 8 -2 30 5 49 14 25 12 33 21 28 33 -3 9 -3
13 1 9 4 -4 13 1 21 11 13 15 13 14 3 -8 -9 -21 -9 -22 2 -8 7 9 20 26 28 37
8 12 23 21 33 21 10 0 16 4 13 9 -3 5 1 12 10 15 10 4 13 2 9 -7 -4 -6 0 -4 8
6 8 10 25 19 36 20 14 1 20 6 16 15 -3 9 0 12 9 9 21 -8 26 16 7 30 -14 10
-14 11 4 10 15 -2 20 4 20 23 0 20 39 66 73 86 2 1 4 11 5 23 1 13 6 20 14 17
17 -7 17 6 1 23 -11 10 -9 11 5 5 10 -4 23 -16 27 -28 7 -17 9 -18 9 -3 1 9 6
17 11 17 6 0 10 5 10 11 0 8 -5 8 -15 -1 -9 -8 -15 -9 -15 -2 0 6 5 14 10 17
6 4 8 10 6 14 -3 4 1 8 9 8 8 0 11 -5 8 -10 -3 -5 8 1 26 14 19 14 29 29 26
37 -5 13 -3 13 12 1 11 -9 14 -10 9 -1 -4 7 -2 12 4 12 6 0 9 4 5 9 -5 10 36
43 69 54 10 4 16 13 13 20 -2 6 2 18 10 26 13 12 14 11 9 -10 -4 -16 0 -12 13
11 20 36 19 50 -3 50 -25 0 -97 61 -111 93 -26 62 6 63 98 2 37 -25 67 -43 67
-40 0 3 -15 36 -34 73 -32 64 -66 161 -66 189 0 23 19 14 61 -28 22 -22 36
-32 30 -22 -19 32 -38 53 -48 53 -14 0 -73 58 -73 71 0 5 4 7 10 4 5 -3 7 0 5
7 -8 19 33 60 53 54 9 -3 43 -8 75 -12 47 -5 60 -11 67 -28 7 -16 9 -17 9 -4
1 9 4 23 7 31 4 11 -10 17 -63 27 -102 19 -107 21 -88 45 12 16 14 17 9 3 -8
-23 18 -24 36 -3 11 13 10 14 -6 8 -17 -6 -18 -5 -4 12 14 17 13 17 -10 10
-14 -4 -43 -16 -65 -27 -22 -11 -47 -24 -55 -28 -8 -4 -15 -20 -15 -36 0 -16
-6 -34 -15 -41 -26 -21 -31 -14 -15 18 9 17 14 33 12 36 -3 2 -8 -5 -12 -16
-3 -12 -14 -21 -23 -22 -11 0 -13 -2 -4 -6 10 -4 10 -8 0 -21 -11 -13 -11 -14
1 -7 11 6 13 4 8 -9 -4 -9 -3 -15 2 -12 5 3 12 -1 15 -10 3 -8 2 -12 -3 -9 -5
3 -17 -5 -26 -17 l-17 -23 7 22 c6 21 4 22 -17 14 -13 -5 -22 -16 -22 -25 2
-18 -12 -22 -18 -4 -5 14 -28 2 -28 -15 0 -7 4 -6 10 3 7 12 9 10 7 -8 -1 -16
-6 -21 -19 -16 -11 3 -18 0 -18 -8 0 -11 -2 -11 -9 0 -5 9 -8 3 -9 -18 0 -21
3 -28 11 -23 7 4 5 -2 -3 -13 -22 -29 -24 -30 -17 -11 4 9 3 17 -2 17 -15 0
-20 -13 -11 -29 6 -13 4 -17 -11 -18 -15 -1 -18 3 -15 15 9 29 44 222 55 307
11 88 19 180 26 325 6 105 13 185 25 275 15 113 9 274 -16 415 -31 175 -34
202 -39 278 -2 35 -6 67 -10 70 -4 4 -5 -49 -2 -118z"/>
<path d="M8526 7214 c-9 -24 -6 -42 4 -19 7 17 9 17 9 3 1 -10 9 -18 19 -19
12 0 10 -3 -7 -10 -18 -7 -27 -6 -33 3 -7 12 -12 4 -9 -15 1 -5 -3 -6 -9 -2
-6 3 -7 11 -4 17 4 7 2 8 -4 4 -6 -4 -9 -12 -6 -19 3 -8 -4 -13 -16 -13 -11 0
-20 4 -20 8 0 4 6 8 13 8 8 0 7 4 -3 10 -13 9 -13 10 0 10 9 0 16 9 17 19 2
19 -19 23 -34 6 -4 -4 -2 -5 5 -1 15 9 17 -10 2 -19 -6 -4 -17 -2 -25 5 -9 8
-15 8 -20 0 -4 -6 -3 -10 2 -9 20 5 39 -13 37 -34 -1 -12 -3 -26 -3 -30 -1 -5
-5 -6 -9 -3 -5 3 -9 -1 -9 -9 0 -8 5 -13 11 -12 6 1 10 -4 8 -11 -1 -8 2 -11
6 -8 5 3 8 16 7 29 -2 18 3 23 21 25 28 2 31 -10 8 -29 -8 -7 -13 -20 -11 -30
3 -10 0 -16 -7 -14 -6 2 -23 6 -39 9 l-28 7 21 -21 c11 -11 18 -25 15 -31 -8
-11 12 -39 28 -39 6 0 2 6 -9 14 -16 13 -17 17 -5 28 8 8 11 8 7 1 -3 -6 3
-18 14 -26 18 -13 19 -15 5 -21 -9 -3 -33 1 -53 9 -33 13 -35 13 -18 0 11 -8
25 -15 30 -15 6 0 3 -7 -7 -15 -18 -13 -18 -14 2 -26 16 -11 18 -16 8 -28 -10
-12 -9 -14 6 -8 13 5 16 3 10 -6 -4 -6 -8 -21 -8 -31 0 -11 -7 -21 -15 -23
-13 -4 -13 -3 0 7 12 9 10 10 -10 5 -14 -4 -29 -12 -35 -17 -6 -6 -4 -7 6 -3
23 9 32 -10 14 -29 -13 -13 -13 -15 6 -21 17 -6 19 -9 8 -16 -12 -8 -12 -11 1
-19 12 -8 11 -10 -8 -10 -13 0 -20 -4 -17 -10 4 -6 10 -8 14 -5 5 2 7 -14 6
-35 -2 -35 0 -39 13 -28 11 9 14 9 9 1 -4 -7 0 -16 10 -22 10 -6 13 -11 8 -11
-6 0 -15 4 -21 10 -6 6 -15 6 -24 0 -13 -8 -13 -10 1 -10 9 0 24 -9 34 -20 12
-13 26 -18 39 -15 12 3 16 2 9 -1 -7 -3 -10 -11 -7 -19 3 -7 1 -16 -5 -20 -7
-4 -8 0 -4 11 5 14 3 16 -11 11 -10 -4 -20 -7 -22 -7 -3 0 -3 -4 1 -9 3 -6 -4
-8 -15 -6 -17 3 -19 1 -10 -16 6 -10 13 -19 16 -19 3 0 2 6 -2 13 -6 9 -5 9 8
0 8 -7 17 -12 19 -10 2 1 -4 -5 -13 -13 -16 -14 -16 -15 11 -16 23 -1 28 3 24
15 -5 13 -3 14 7 4 9 -8 19 -9 34 -2 19 9 19 8 -1 -7 -26 -19 -31 -39 -8 -30
12 4 13 2 6 -13 -6 -10 -7 -22 -3 -26 4 -5 -1 -5 -11 -2 -11 4 -16 3 -12 -4 4
-6 13 -8 20 -5 8 3 16 1 19 -5 2 -5 3 -4 2 3 -2 7 4 18 13 25 25 19 36 15 18
-5 -14 -15 -14 -19 -3 -19 8 0 14 5 13 11 -1 6 8 15 21 21 12 5 22 13 22 18 0
4 -9 3 -19 -3 -14 -7 -20 -7 -23 1 -3 8 -10 6 -20 -5 -9 -9 -20 -16 -24 -16
-5 0 -3 5 3 11 6 6 9 18 6 27 -5 11 -3 13 8 6 22 -14 47 -15 55 -2 5 7 3 8 -6
3 -8 -5 -11 -3 -8 6 3 8 11 14 20 14 8 0 23 8 32 18 10 9 22 14 28 11 6 -4 5
-10 -3 -15 -11 -7 -11 -9 2 -9 9 0 22 14 29 30 7 17 28 56 47 87 19 33 26 50
15 40 -10 -9 -22 -14 -27 -10 -4 5 -6 3 -2 -2 3 -6 2 -17 -4 -25 -7 -13 -9
-12 -9 2 0 9 -5 20 -12 24 -7 4 -8 3 -4 -5 11 -17 -31 -51 -52 -44 -10 4 -12
8 -4 11 7 2 10 8 7 12 -3 5 3 7 14 5 13 -2 20 2 20 13 0 9 3 61 7 115 4 69 2
97 -6 97 -6 0 -8 5 -5 10 12 20 -7 32 -22 13 -13 -16 -13 -16 -2 7 7 14 13 27
13 30 1 3 5 4 9 2 10 -3 -24 60 -38 70 -5 4 -16 5 -24 3 -11 -5 -12 -3 -1 10
11 13 15 13 22 3 8 -11 9 -11 6 0 -2 8 -7 13 -12 12 -14 -3 -26 25 -21 50 2
12 0 30 -5 40 -6 11 -5 21 3 29 9 10 8 11 -8 5 -11 -4 -23 -12 -28 -18 -4 -6
-6 0 -4 13 2 14 10 27 18 29 11 3 11 1 -1 -7 -9 -7 -10 -11 -3 -11 25 0 23 20
-2 30 -15 6 -29 19 -32 30 -6 24 -19 26 -27 4z"/>
<path d="M5560 6833 c0 -3 6 -14 14 -22 8 -9 78 -106 156 -216 129 -182 139
-200 118 -203 -40 -6 -272 -64 -287 -72 -14 -7 -36 -70 -48 -135 -10 -53 15
-15 31 49 9 33 19 63 23 67 9 8 124 42 127 37 0 -2 7 -14 14 -27 10 -17 10
-21 1 -15 -9 5 -11 2 -6 -8 8 -21 24 -114 37 -218 17 -129 17 -125 -5 -125
-23 -1 -45 24 -38 42 6 15 -14 43 -29 43 -6 0 -8 -10 -5 -22 3 -13 9 -39 12
-59 l7 -36 -99 -37 c-55 -20 -105 -36 -111 -36 -7 0 -12 -5 -12 -11 0 -15 36
-6 140 36 58 23 108 35 155 38 39 3 116 11 173 18 121 15 223 5 361 -37 148
-45 287 -124 353 -202 23 -27 168 -98 168 -83 0 5 -29 21 -64 36 -66 28 -131
85 -138 119 -1 11 -9 21 -17 24 -9 3 -11 0 -7 -9 4 -8 0 -5 -8 5 -9 11 -16 15
-16 9 0 -7 -37 12 -83 40 -45 29 -105 63 -134 76 -36 17 -53 32 -56 48 -2 13
0 23 4 23 5 0 9 5 9 11 0 5 -5 7 -12 3 -8 -5 -9 -2 -5 9 18 45 20 52 10 42 -6
-5 -16 -27 -23 -47 -11 -37 -30 -60 -30 -38 0 6 -4 8 -10 5 -5 -3 -10 -1 -10
4 0 6 -5 11 -11 11 -5 0 -7 -5 -3 -11 4 -8 0 -8 -15 0 -11 7 -21 9 -21 5 0 -3
-7 -1 -16 7 -10 8 -13 21 -9 36 9 36 -13 27 -24 -9 -7 -26 -9 -16 -5 42 l4 75
-14 -50 c-8 -27 -15 -53 -16 -57 0 -13 -18 -9 -36 10 -17 16 -17 16 -12 -5 3
-13 2 -23 -3 -23 -5 0 -9 4 -9 8 0 13 -44 12 -52 -1 -6 -9 -8 -8 -9 3 0 8 -4
4 -8 -9 -4 -14 -13 -27 -20 -29 -10 -3 -12 1 -8 14 7 19 7 19 -7 0 -9 -11 -22
-16 -31 -13 -8 4 -15 2 -15 -2 0 -14 -29 -21 -36 -9 -4 7 -3 8 4 4 7 -4 12 -2
12 3 0 16 -18 13 -27 -3 -4 -8 -15 -16 -23 -18 -8 -2 -18 -7 -22 -13 -11 -15
-15 -4 -22 60 -11 98 -17 148 -22 175 -2 14 -7 57 -10 95 -3 39 -7 75 -9 81
-4 12 41 26 120 39 40 6 41 5 64 -37 30 -55 51 -79 62 -72 18 11 9 45 -14 53
-22 9 -63 58 -55 67 12 12 185 22 343 21 172 -2 182 -3 210 -25 23 -18 30 -20
36 -9 15 25 -1 54 -29 55 -286 7 -488 -2 -563 -24 -11 -3 -39 28 -94 108 -97
139 -235 328 -241 328 -2 0 -4 -3 -4 -7z"/>
<path d="M4593 6656 c-279 -74 -487 -252 -618 -529 -25 -52 -48 -109 -51 -127
-6 -28 -5 -32 12 -27 31 9 160 20 153 13 -3 -4 -44 -17 -90 -31 -46 -13 -89
-32 -96 -41 -18 -25 -17 -196 2 -269 31 -119 111 -228 192 -263 41 -17 107
-28 276 -46 15 -1 27 1 27 6 0 4 -16 8 -35 8 -56 0 -185 22 -185 31 0 5 -6 9
-13 9 -8 0 -22 9 -31 19 -17 19 -17 20 6 31 20 10 21 10 6 -3 -16 -13 -16 -15
9 -26 23 -11 25 -10 13 3 -7 9 -9 16 -4 17 5 0 19 2 31 3 12 1 20 0 18 -4 -2
-3 23 -6 56 -6 32 1 59 3 59 6 0 3 8 6 19 6 12 0 17 -6 14 -16 -4 -13 -4 -13
6 0 8 12 16 13 41 3 16 -6 28 -8 26 -4 -3 4 1 8 8 8 8 0 12 -6 9 -14 -3 -7 0
-13 6 -13 6 0 11 5 11 10 0 7 6 7 20 0 14 -8 20 -8 20 0 0 6 4 8 10 5 12 -8
48 -16 75 -18 11 -1 26 -11 33 -22 10 -16 12 -16 8 -2 -6 20 -2 21 25 7 14 -8
19 -7 19 2 0 9 3 9 10 -2 9 -15 -7 -33 -21 -24 -4 2 -10 0 -13 -5 -3 -5 -59
-10 -123 -10 -64 -1 -119 -4 -122 -6 -9 -10 386 -4 449 6 36 5 84 21 107 35
93 54 193 211 234 369 27 102 37 328 19 446 -31 214 -141 388 -289 457 -82 38
-214 41 -338 8z m468 -454 c27 -24 33 -37 37 -85 5 -68 -2 -101 -28 -127 -43
-43 -91 -16 -129 72 -49 115 -35 168 44 168 35 0 52 -6 76 -28z"/>
<path d="M8690 6390 c-29 -53 -47 -153 -20 -111 5 10 21 12 51 9 39 -5 41 -4
16 5 -33 13 -31 27 7 45 33 17 46 8 88 -57 33 -52 35 -62 11 -55 -10 2 -8 -1
5 -7 16 -9 21 -20 20 -41 -1 -16 -7 -32 -12 -35 -5 -3 -6 -1 -2 5 4 7 2 12 -5
12 -8 0 -8 4 2 16 10 13 10 17 -2 24 -7 5 -18 5 -22 1 -12 -12 -97 30 -97 48
0 11 3 11 15 1 8 -7 15 -9 15 -4 0 4 6 1 13 -8 21 -26 47 -30 47 -7 0 13 4 18
12 13 7 -5 8 -3 3 6 -7 11 -10 10 -19 -1 -16 -20 -36 -22 -36 -3 0 8 4 13 9 9
5 -3 13 0 17 6 5 9 -3 10 -28 5 -19 -3 -38 -3 -42 1 -4 4 -19 8 -34 10 l-27 3
25 -15 c18 -10 20 -14 8 -15 -9 0 -19 4 -22 9 -7 10 -56 2 -56 -10 0 -19 67
-83 105 -100 40 -19 99 -24 129 -13 59 23 -39 210 -136 260 -25 13 -28 12 -38
-6z"/>
<path d="M6250 6159 c243 -76 386 -178 512 -366 47 -71 76 -145 93 -238 11
-59 13 -64 14 -30 3 139 -109 342 -262 472 -99 85 -264 161 -378 177 -38 5
-36 3 21 -15z"/>
<path d="M7297 5974 c-91 -28 -211 -163 -297 -334 -39 -79 -38 -77 36 31 105
153 157 199 226 199 78 0 137 -56 207 -196 52 -104 79 -203 92 -344 17 -177
-4 -492 -42 -644 -11 -43 -19 -80 -17 -81 2 -1 13 13 25 32 13 19 18 31 12 27
-7 -4 -7 0 0 12 6 11 16 32 22 49 7 20 13 25 18 16 23 -36 33 319 20 659 -14
368 -75 546 -197 580 -45 12 -46 12 -105 -6z"/>
<path d="M6083 5849 c-128 -25 -233 -115 -233 -199 0 -50 26 -93 112 -184 92
-99 225 -193 312 -220 68 -22 171 -18 271 9 144 39 189 99 167 227 -24 138
-98 232 -241 307 -122 63 -263 85 -388 60z m226 -104 c125 -30 306 -148 346
-226 12 -23 6 -19 -32 19 -53 52 -213 138 -239 128 -8 -3 -13 -2 -10 3 7 11
-41 24 -56 15 -6 -4 -8 -3 -5 3 16 26 -240 54 -322 35 -61 -15 -37 4 29 22 72
19 209 20 289 1z"/>
<path d="M7145 5734 c-44 -24 -123 -103 -152 -152 -14 -23 -30 -39 -35 -35 -6
3 -8 1 -5 -4 4 -6 -6 -39 -22 -75 -45 -99 -97 -256 -120 -361 -50 -232 -16
-342 163 -525 117 -121 179 -166 213 -158 46 11 143 122 195 222 96 185 130
361 109 566 -24 229 -85 408 -167 488 -38 38 -49 44 -96 47 -36 2 -63 -2 -83
-13z m16 -354 c42 -23 12 -109 -39 -111 -24 -2 -24 -2 -4 -6 28 -5 28 -24 1
-49 -28 -25 -50 -9 -66 47 -10 34 -11 50 -2 72 21 49 67 69 110 47z"/>
<path d="M2611 1951 c-23 -15 -27 -148 -6 -210 l17 -51 48 37 c46 36 48 39 31
54 -10 8 -26 30 -35 47 -9 18 -21 30 -26 27 -8 -5 -9 6 -11 83 -1 12 -2 22 -3
22 0 0 -7 -4 -15 -9z"/>
<path d="M2143 1114 c0 -8 4 -14 9 -14 4 0 8 -5 8 -11 0 -5 -4 -8 -8 -5 -5 3
-9 -1 -9 -9 0 -10 5 -11 17 -5 24 13 53 -10 53 -43 0 -15 4 -30 9 -33 5 -4 -3
-19 -18 -35 l-28 -29 24 -17 c34 -24 62 -54 57 -60 -3 -3 -22 11 -42 31 -19
20 -44 36 -55 36 -24 0 -50 10 -50 19 0 4 13 6 30 3 21 -3 32 0 36 12 3 9 12
16 19 16 8 0 17 5 21 11 4 7 -2 10 -17 8 -13 -1 -35 1 -49 4 -23 6 -130 14
-275 23 -60 3 -60 3 -29 -12 17 -8 64 -23 105 -32 l74 -18 -32 -19 c-38 -22
-41 -37 -13 -63 21 -20 18 -52 -4 -52 -23 0 -36 24 -36 66 0 40 -1 42 -35 46
-19 2 -55 -1 -80 -7 -24 -7 -46 -8 -47 -3 -5 15 -42 -18 -91 -80 -26 -33 -43
-63 -38 -67 13 -8 220 -27 230 -21 4 3 26 6 50 7 28 2 40 7 37 15 -3 8 11 13
45 16 75 5 77 -22 3 -69 -16 -10 -13 -12 25 -12 38 -1 42 1 31 14 -11 13 -10
14 3 10 8 -4 17 -15 20 -26 7 -28 25 -23 29 7 2 15 12 32 22 38 11 6 40 23 65
39 25 15 49 27 53 27 14 0 38 -65 38 -100 0 -28 3 -31 23 -25 40 13 40 22 -4
81 -39 53 -41 59 -24 68 40 24 116 88 131 111 17 26 13 39 -16 55 -16 8 -18 8
-14 -5 4 -8 1 -15 -4 -15 -6 0 -14 9 -17 20 -3 11 -12 20 -18 20 -7 0 -57 22
-113 49 -68 33 -101 44 -101 35z"/>
<path d="M6650 403 c-121 -20 -282 -85 -273 -109 4 -11 -3 -14 -31 -12 -20 2
-36 6 -36 9 0 6 -67 39 -80 39 -19 0 -10 -30 13 -44 17 -11 89 -15 345 -18
l323 -5 42 28 c23 15 54 30 69 34 36 9 44 33 14 45 -84 32 -289 49 -386 33z"/>
</g>
</svg>
